<svg width="606.35239" height="650.0465" viewBox="0 0 606.35239 650.0465" fill="none" xmlns="http://www.w3.org/2000/svg">
    <g clip-path="url(#clip0)">
        <path d="M552.981 594.899H26.3308C20.8651 594.899 16.4344 597.413 16.4344 600.515V636.763C16.4344 639.864 20.8651 642.379 26.3308 642.379H552.981C558.447 642.379 562.878 639.864 562.878 636.763V600.515C562.878 597.413 558.447 594.899 552.981 594.899Z" fill="#6C63FF"/>
        <path opacity="0.05" d="M433.457 574.417H0V580.003H433.457V574.417Z" fill="white"/>
        <path opacity="0.05" d="M433.457 587.451H0V593.037H433.457V587.451Z" fill="white"/>
        <path opacity="0.05" d="M433.457 600.485H0V606.07H433.457V600.485Z" fill="white"/>
        <path opacity="0.05" d="M681 602.176H0V610.723H681V602.176Z" fill="white"/>
        <g opacity="0.5">
            <path opacity="0.5" d="M577.835 174.002C575.969 172.733 573.685 172.145 571.4 172.347C569.116 172.549 566.984 173.527 565.396 175.101C563.681 176.877 562.761 179.219 562.833 181.629C562.905 184.039 563.963 186.328 565.781 188.009L577.668 199.244C578.041 199.598 578.546 199.797 579.073 199.797C579.6 199.797 580.106 199.598 580.478 199.244L592.295 187.942C594.104 186.253 595.149 183.959 595.208 181.549C595.267 179.139 594.335 176.802 592.61 175.034C591.017 173.468 588.883 172.5 586.599 172.309C584.316 172.118 582.037 172.716 580.181 173.994C579.839 174.228 579.43 174.355 579.009 174.357C578.588 174.358 578.178 174.234 577.835 174.002V174.002Z" fill="#F55F44"/>
            <path opacity="0.5" d="M579.156 198.803C579.02 199.045 578.949 199.315 578.949 199.589C578.949 199.864 579.02 200.134 579.156 200.376C579.324 200.612 579.479 200.856 579.62 201.108C579.927 201.832 579.393 202.623 578.85 203.214C578.509 203.588 578.132 204.087 578.351 204.545C578.459 204.71 578.595 204.856 578.754 204.978C579.117 205.31 579.384 205.726 579.528 206.185C579.673 206.644 579.69 207.131 579.578 207.598C579.466 208.066 579.229 208.498 578.89 208.852C578.551 209.207 578.121 209.472 577.642 209.622" stroke="#F55F44" stroke-miterlimit="10"/>
        </g>
        <g opacity="0.5">
            <path opacity="0.5" d="M70.1482 235.587C68.2825 234.318 65.9981 233.73 63.7137 233.932C61.4293 234.134 59.2979 235.111 57.7099 236.686C55.9944 238.462 55.0749 240.804 55.1468 243.214C55.2187 245.624 56.2764 247.913 58.0951 249.594L69.9819 260.829C70.3546 261.183 70.8599 261.382 71.3868 261.382C71.9137 261.382 72.4191 261.183 72.7917 260.829L84.6085 249.527C86.4175 247.838 87.4625 245.544 87.5213 243.134C87.5801 240.724 86.6483 238.387 84.9237 236.619C83.3303 235.053 81.1962 234.085 78.913 233.894C76.6299 233.703 74.3508 234.301 72.4941 235.579C72.153 235.813 71.7434 235.94 71.3226 235.941C70.9018 235.943 70.4911 235.819 70.1482 235.587Z" fill="#F55F44"/>
            <path opacity="0.5" d="M71.47 260.388C71.3336 260.629 71.2622 260.9 71.2622 261.174C71.2622 261.449 71.3336 261.719 71.47 261.961C71.638 262.197 71.7929 262.441 71.9339 262.693C72.2403 263.417 71.7063 264.208 71.1636 264.798C70.8223 265.173 70.4459 265.672 70.6647 266.13C70.7723 266.295 70.9085 266.441 71.0673 266.563C71.4307 266.895 71.6976 267.311 71.842 267.77C71.9865 268.229 72.0036 268.716 71.8917 269.183C71.7798 269.651 71.5428 270.083 71.2036 270.437C70.8643 270.792 70.4345 271.057 69.9557 271.207" stroke="#F55F44" stroke-miterlimit="10"/>
        </g>
        <g opacity="0.5">
            <path opacity="0.5" d="M402.77 1.73111C400.905 0.461794 398.62 -0.125823 396.336 0.0759328C394.051 0.277688 391.92 1.2553 390.332 2.82965C388.617 4.60559 387.697 6.94758 387.769 9.35792C387.841 11.7682 388.899 14.0569 390.717 15.7375L402.604 26.9726C402.977 27.3268 403.482 27.5258 404.009 27.5258C404.536 27.5258 405.041 27.3268 405.414 26.9726L417.231 15.6709C419.04 13.9815 420.085 11.6881 420.143 9.27781C420.202 6.86757 419.27 4.53049 417.546 2.76307C415.952 1.19664 413.818 0.229096 411.535 0.0380079C409.252 -0.153081 406.973 0.445104 405.116 1.72279C404.775 1.95708 404.365 2.08388 403.945 2.08537C403.524 2.08686 403.113 1.96297 402.77 1.73111V1.73111Z" fill="#F55F44"/>
            <path opacity="0.5" d="M404.092 26.5314C403.956 26.7733 403.884 27.0435 403.884 27.3179C403.884 27.5923 403.956 27.8625 404.092 28.1043C404.26 28.3406 404.415 28.585 404.556 28.8367C404.862 29.5607 404.328 30.3514 403.786 30.9422C403.444 31.3167 403.068 31.7745 403.287 32.2738C403.394 32.4386 403.531 32.5849 403.689 32.7066C404.053 33.0387 404.32 33.4546 404.464 33.9138C404.609 34.3729 404.626 34.8598 404.514 35.3272C404.402 35.7945 404.165 36.2263 403.826 36.5809C403.486 36.9354 403.057 37.2005 402.578 37.3504" stroke="#F55F44" stroke-miterlimit="10"/>
        </g>
        <g opacity="0.5">
            <path opacity="0.5" d="M485.803 117.494H483.177V131.642H485.803V117.494Z" fill="#47E6B1"/>
            <path opacity="0.5" d="M491.931 125.816V123.32H477.05V125.816H491.931Z" fill="#47E6B1"/>
        </g>
        <g opacity="0.5">
            <path opacity="0.5" d="M116.525 436.791H114.852V446.16H116.525V436.791Z" fill="#47E6B1"/>
            <path opacity="0.5" d="M120.428 442.302V440.649H110.949V442.302H120.428Z" fill="#47E6B1"/>
        </g>
        <g opacity="0.5">
            <path opacity="0.5" d="M114.667 100.017H112.041V114.165H114.667V100.017Z" fill="#47E6B1"/>
            <path opacity="0.5" d="M120.794 108.34V105.843H105.914V108.34H120.794Z" fill="#47E6B1"/>
        </g>
        <g opacity="0.5">
            <path opacity="0.5" d="M370.215 426.319H368.543V435.689H370.215V426.319Z" fill="#47E6B1"/>
            <path opacity="0.5" d="M374.118 431.831V430.177H364.64V431.831H374.118Z" fill="#47E6B1"/>
        </g>
        <path opacity="0.5" d="M305.52 359.449C305.079 359.244 304.727 358.88 304.528 358.425C304.33 357.971 304.299 357.457 304.442 356.981C304.469 356.908 304.484 356.831 304.485 356.753V356.753C304.505 356.528 304.452 356.301 304.334 356.11C304.217 355.919 304.041 355.774 303.834 355.697C303.627 355.62 303.402 355.616 303.193 355.685C302.984 355.755 302.803 355.894 302.679 356.081V356.081C302.636 356.143 302.6 356.21 302.571 356.281C302.372 356.735 302.019 357.098 301.578 357.303C301.137 357.508 300.639 357.54 300.177 357.392C300.105 357.369 300.031 357.354 299.956 357.348V357.348C299.743 357.334 299.531 357.391 299.352 357.511C299.172 357.631 299.036 357.808 298.962 358.015C298.888 358.222 298.881 358.448 298.941 358.659C299.002 358.87 299.127 359.056 299.299 359.188V359.188C299.359 359.232 299.424 359.27 299.493 359.299C299.934 359.503 300.287 359.867 300.486 360.322C300.685 360.777 300.715 361.291 300.571 361.767C300.549 361.841 300.534 361.918 300.528 361.995C300.514 362.215 300.569 362.434 300.686 362.619C300.803 362.803 300.974 362.944 301.175 363.021C301.375 363.097 301.594 363.104 301.799 363.042C302.004 362.979 302.184 362.85 302.312 362.673V362.673C302.356 362.612 302.393 362.544 302.42 362.473C302.615 362.013 302.967 361.644 303.41 361.434C303.852 361.224 304.353 361.188 304.819 361.334C304.889 361.357 304.961 361.372 305.035 361.378V361.378C305.248 361.392 305.46 361.335 305.639 361.215C305.819 361.095 305.955 360.918 306.029 360.711C306.103 360.504 306.11 360.278 306.05 360.067C305.989 359.856 305.864 359.67 305.692 359.538V359.538C305.638 359.502 305.58 359.472 305.52 359.449Z" fill="#4D8AF0"/>
        <path opacity="0.5" d="M160.263 186.244C159.547 185.937 158.975 185.392 158.652 184.712C158.33 184.031 158.28 183.262 158.512 182.549C158.556 182.44 158.58 182.325 158.582 182.208V182.208C158.615 181.87 158.529 181.532 158.338 181.246C158.147 180.959 157.861 180.742 157.525 180.626C157.19 180.511 156.824 180.505 156.484 180.609C156.145 180.713 155.851 180.921 155.65 181.201V181.201C155.581 181.295 155.522 181.396 155.475 181.501C155.151 182.181 154.578 182.725 153.862 183.032C153.147 183.338 152.338 183.386 151.588 183.165C151.472 183.13 151.351 183.108 151.229 183.099V183.099C150.883 183.077 150.538 183.163 150.248 183.343C149.957 183.523 149.734 183.787 149.614 184.097C149.494 184.407 149.483 184.745 149.581 185.062C149.68 185.378 149.883 185.656 150.161 185.853C150.259 185.92 150.365 185.976 150.476 186.02C151.201 186.318 151.784 186.86 152.115 187.542C152.446 188.223 152.502 188.997 152.271 189.715C152.235 189.826 152.212 189.94 152.201 190.056C152.179 190.385 152.269 190.713 152.458 190.989C152.647 191.266 152.925 191.477 153.251 191.591C153.577 191.706 153.933 191.717 154.265 191.623C154.598 191.529 154.89 191.336 155.098 191.071V191.071C155.17 190.979 155.229 190.878 155.273 190.772C155.591 190.084 156.162 189.53 156.88 189.215C157.598 188.901 158.412 188.848 159.168 189.066C159.282 189.101 159.4 189.123 159.519 189.132C159.865 189.154 160.209 189.068 160.5 188.888C160.791 188.708 161.013 188.443 161.133 188.134C161.253 187.824 161.265 187.486 161.167 187.169C161.068 186.853 160.864 186.575 160.586 186.378V186.378C160.485 186.32 160.376 186.275 160.263 186.244V186.244Z" fill="#4D8AF0"/>
        <path opacity="0.5" d="M286.309 23.9598C285.594 23.6525 285.021 23.1074 284.699 22.427C284.376 21.7466 284.326 20.9777 284.558 20.2648C284.603 20.1558 284.626 20.0403 284.628 19.9235V19.9235C284.661 19.5859 284.575 19.2474 284.384 18.9611C284.193 18.6749 283.907 18.4571 283.572 18.3419C283.236 18.2267 282.87 18.2206 282.531 18.3246C282.191 18.4286 281.898 18.6368 281.696 18.9165V18.9165C281.627 19.0107 281.569 19.111 281.521 19.2161C281.205 19.9037 280.635 20.4573 279.919 20.7718C279.202 21.0862 278.39 21.1398 277.634 20.9222C277.518 20.8873 277.397 20.8649 277.276 20.8556V20.8556C276.929 20.8344 276.585 20.9201 276.294 21.1001C276.003 21.28 275.781 21.5445 275.661 21.8542C275.541 22.1639 275.529 22.5021 275.628 22.8186C275.726 23.135 275.93 23.4127 276.208 23.6103V23.6103C276.306 23.677 276.411 23.7328 276.523 23.7768C277.247 24.0753 277.831 24.6172 278.162 25.2987C278.493 25.9803 278.548 26.7539 278.317 27.4719C278.281 27.583 278.258 27.6973 278.247 27.8131V27.8131C278.225 28.1424 278.315 28.4698 278.504 28.7465C278.694 29.0232 278.972 29.2343 279.297 29.3484C279.623 29.4626 279.979 29.4736 280.312 29.3799C280.645 29.2862 280.937 29.0927 281.144 28.8284V28.8284C281.216 28.7362 281.275 28.6355 281.32 28.5288C281.637 27.8406 282.208 27.2868 282.926 26.9724C283.644 26.658 284.458 26.6047 285.215 26.8227C285.328 26.8577 285.446 26.88 285.565 26.8893V26.8893C285.911 26.9105 286.256 26.8248 286.547 26.6449C286.838 26.4649 287.06 26.2004 287.18 25.8908C287.3 25.5811 287.311 25.2428 287.213 24.9264C287.114 24.6099 286.911 24.3322 286.633 24.1346V24.1346C286.534 24.0627 286.425 24.004 286.309 23.9598V23.9598Z" fill="#4D8AF0"/>
        <path d="M315.599 552.368L288.381 531.804C288.381 531.804 286.188 523.241 285.31 517.243C284.432 511.245 283.112 485.547 283.112 485.547C283.737 483.322 284.151 481.045 284.348 478.745C284.616 478.69 284.907 478.624 285.159 478.553C287.195 478.044 289.083 477.076 290.673 475.727C292.264 474.378 293.515 472.683 294.327 470.777C297.124 463.932 293.51 455.843 288.935 450.417C284.359 444.991 278.598 440.633 275.588 433.909C271.874 425.627 273.144 415.606 271.248 406.538C271.066 405.267 270.588 404.056 269.849 402.999C268.669 401.563 266.829 401.255 265.19 400.683C259.999 398.867 256.106 393.909 253.069 388.73C248.152 380.339 243.062 367.572 232.932 366.846C229.167 366.576 225.241 367.825 221.431 367.814C215.53 367.814 209.685 367.886 203.834 368.684C201.742 368.964 199.577 369.35 197.832 370.703C191.841 375.37 194.554 387.69 188.782 392.714C187.064 394.2 184.866 394.74 182.925 395.763C175.609 399.615 172.359 409.889 172.79 419.128C172.997 423.464 173.908 427.971 176.509 431.135C178.573 433.666 181.504 435.119 183.429 437.793C186.522 442.097 186.102 447.814 185.767 453.625C181.627 455.331 178.305 457.29 177.259 459.398C173.713 466.48 174.171 490.692 174.171 490.692C174.171 490.692 175.486 530.312 165.384 535.265L127.616 560.963C127.616 560.963 100.823 538.049 94.2334 551.542C89.7305 560.77 106.176 565.992 117.027 568.37C110.186 573.146 106.399 581.973 109.605 587.949C114.639 597.375 128.712 603.797 128.712 603.797C128.712 603.797 182.383 606.345 207.19 600.875H207.598C218.131 602.751 233.245 604.727 245.366 603.538C245.601 604.088 245.763 604.441 245.763 604.441C245.763 604.441 323.514 610.868 337.56 584.741C344.764 571.336 337.246 565.151 328.207 562.3C338.326 561.508 349.849 558.723 351.174 550.254C353.591 534.803 315.599 552.368 315.599 552.368ZM307.768 560.561C293.538 565.657 281.993 565.943 275.84 565.563C272.82 559.081 260.223 531.011 259.893 512.219C259.977 508.026 260.732 504.361 262.438 501.61C266.096 495.683 267.181 491.033 267.058 487.506C267.058 487.247 267.058 486.989 267.058 486.735C267.076 485.658 266.971 484.582 266.745 483.527C267.347 484.98 267.525 486.57 267.26 488.117C265.945 494.753 269.458 537.802 269.458 537.802C269.458 537.802 272.311 547.442 278.24 550.221L307.768 560.561ZM168.443 557.507L182.103 548.939C182.103 548.939 188.474 545.94 189.134 538.66L193.637 503.866C193.941 505.357 194.343 506.827 194.84 508.268C195.634 510.552 195.958 513.897 196.025 517.881C195.852 537.301 189.134 569.52 189.134 569.52H189.212C189.212 569.613 189.179 569.69 189.168 569.751L188.692 569.778C177.645 569.448 151.898 568.502 137.489 566.537L168.443 557.507ZM144.626 577.785V577.851H141.27L144.626 577.785Z" fill="url(#paint0_linear)"/>
        <path d="M252.023 392.914C254.946 397.98 258.717 402.848 263.737 404.597C265.316 405.149 267.084 405.464 268.2 406.871C268.915 407.906 269.379 409.09 269.555 410.331C271.379 419.195 270.158 428.991 273.739 437.098C276.64 443.66 282.19 447.932 286.602 453.224C291.015 458.517 294.473 466.431 291.801 473.12C291.024 474.979 289.82 476.633 288.286 477.953C286.751 479.273 284.928 480.222 282.96 480.725C279.267 481.719 275.412 481.305 271.664 480.648C266.722 479.781 261.69 478.44 257.573 475.129C250.45 469.4 247.437 459.124 243.711 449.979C241.96 445.697 239.633 441.21 235.784 439.681C231.378 437.926 226.419 440.857 223.557 445.156C220.695 449.455 219.429 454.858 218.04 460.057C216.478 465.929 214.503 472.022 210.392 475.863C208.612 477.581 206.366 478.752 203.926 479.234C201.487 479.716 198.959 479.488 196.647 478.578C192.073 476.696 188.458 471.922 187.404 466.387C185.786 457.86 189.669 447.623 184.9 440.879C183.048 438.268 180.219 436.844 178.234 434.372C175.751 431.276 174.848 426.866 174.652 422.633C174.234 413.593 177.363 403.521 184.42 399.779C186.305 398.78 188.408 398.256 190.065 396.799C195.643 391.893 193.01 379.845 198.784 375.275C200.457 373.945 202.555 373.575 204.574 373.294C210.23 372.521 215.848 372.433 221.532 372.45C225.208 372.45 228.996 371.235 232.622 371.5C242.384 372.223 247.287 384.707 252.023 392.914Z" fill="#965D7B"/>
        <path d="M146.882 574.897L149.025 599.554L298.9 598.684L296.042 571.766L245.371 566.038L156.516 571.25L146.882 574.897Z" fill="#575988"/>
        <path opacity="0.05" d="M146.882 574.897L149.025 599.554L298.9 598.684L296.042 571.766L245.371 566.038L156.516 571.25L146.882 574.897Z" fill="black"/>
        <path d="M245.408 592.106L196.186 596.747C196.186 596.747 229.909 605.397 249.597 601.195L245.408 592.106Z" fill="#F7C4A7"/>
        <path opacity="0.1" d="M245.408 592.106L196.186 596.747C196.186 596.747 229.909 605.397 249.597 601.195L245.408 592.106Z" fill="black"/>
        <path d="M207.822 416.15C207.822 416.15 217.437 441.348 203.224 452.592C189.012 463.835 200.719 495.283 200.719 495.283L255.471 492.781C255.471 492.781 260.901 457.382 257.977 449.886C257.977 449.886 245.02 453.634 242.096 445.721C239.172 437.808 237.079 416.15 237.079 416.15H207.822Z" fill="#F7C4A7"/>
        <path d="M195.45 569.113C195.45 569.113 148.629 568.05 134.863 564.637C121.096 561.223 109.228 577.609 114.101 586.977C118.975 596.345 132.524 602.691 132.524 602.691C132.524 602.691 202.227 606.088 217.267 596.535C217.267 596.535 222.989 580.183 217.267 576.999H144.604L198.197 575.935L195.45 569.113Z" fill="#575988"/>
        <path d="M269.087 564.61C269.087 564.61 284.966 567.993 306.843 559.531C306.843 559.531 347.822 558.266 334.091 584.058C320.36 609.85 244.417 603.523 244.417 603.523C244.417 603.523 239.895 594.002 244.417 591.466C248.94 588.93 288.183 572.636 300.41 573.484L266.492 580.039L269.087 564.61Z" fill="#575988"/>
        <path opacity="0.1" d="M239.326 428.708C238.52 422.815 238.047 418.012 238.047 418.012H208.511C209.876 421.805 210.822 425.731 211.335 429.722C215.477 432.566 220.452 434.006 225.504 433.823C230.556 433.64 235.41 431.844 239.326 428.708V428.708Z" fill="black"/>
        <path d="M223.405 432.907C236.169 432.907 246.516 422.487 246.516 409.633C246.516 396.779 236.169 386.358 223.405 386.358C210.641 386.358 200.294 396.779 200.294 409.633C200.294 422.487 210.641 432.907 223.405 432.907Z" fill="#F7C4A7"/>
        <path d="M210.711 449.387C210.711 449.387 182.765 454.631 179.378 461.545C175.992 468.458 176.416 492.166 176.416 492.166C176.416 492.166 177.682 530.962 167.946 535.786L131.524 560.953C131.524 560.953 105.698 538.516 99.3431 551.724C92.9882 564.932 129.834 569.762 129.834 569.762L170.909 557.604L184.037 549.215C184.037 549.215 190.174 546.281 190.81 539.146L196.317 495.946L218.338 489.652H253.906L258.671 476.179C258.671 476.179 267.459 483.153 266.186 489.652C264.914 496.151 268.307 538.284 268.307 538.284C268.307 538.284 271.057 547.717 276.776 550.442L309.805 562.186C309.805 562.186 344.737 565.54 347.07 550.442C349.402 535.344 312.768 552.592 312.768 552.592L286.495 532.437C286.495 532.437 284.381 524.048 283.533 518.173C282.684 512.299 281.418 487.137 281.418 487.137C281.418 487.137 289.463 460.71 266.17 456.101L236.103 446.872L210.711 449.387Z" fill="#F7C4A7"/>
        <path opacity="0.1" d="M191.188 454.603L195.528 482.982C195.528 482.982 191.066 496.179 195.528 509.165C199.99 522.152 190.023 570.544 190.023 570.544C190.023 570.544 242.31 587.101 274.249 568.027C274.249 568.027 250.755 519.017 260.7 502.68C270.646 486.343 260.867 479.952 260.867 479.952L262.396 449.901L255.2 447.803L250.967 477.546C250.967 477.546 221.755 497.652 200.163 480.063L195.506 447.803L191.188 454.603Z" fill="black"/>
        <path opacity="0.07" d="M221.864 488.668C219.561 484.95 215.97 482.233 211.793 481.046C207.615 479.859 203.149 480.287 199.267 482.247C206.483 487.727 214.443 489.19 221.864 488.668Z" fill="white"/>
        <path opacity="0.07" d="M233.163 484.953C235.463 481.232 239.054 478.512 243.232 477.323C247.411 476.135 251.877 476.563 255.76 478.525C248.554 483.988 240.591 485.447 233.163 484.953Z" fill="white"/>
        <path opacity="0.1" d="M191.188 455.146L195.528 482.058C195.528 482.058 191.066 495.255 195.528 508.242C199.99 521.229 190.023 569.611 190.023 569.611C190.023 569.611 242.31 586.169 274.249 567.1C274.249 567.1 250.755 518.088 260.7 501.751C270.646 485.414 260.867 479.022 260.867 479.022L262.396 448.964L255.2 446.872L250.967 476.616C250.967 476.616 221.755 496.723 200.163 479.127L195.506 446.872L191.188 455.146Z" fill="black"/>
        <path d="M190.976 454.517L195.528 482.058C195.528 482.058 191.066 495.255 195.528 508.242C199.99 521.229 190.023 569.611 190.023 569.611C190.023 569.611 242.31 586.169 274.249 567.1C274.249 567.1 250.755 518.083 260.7 501.745C270.646 485.408 260.867 479.022 260.867 479.022L262.396 448.964L255.2 446.872L250.967 476.616C250.967 476.616 221.755 496.723 200.163 479.127L195.506 446.872L190.976 454.517Z" fill="#FC6681"/>
        <path d="M212.62 579.603L223.477 578.138C223.477 578.138 236.008 562.114 244.988 574.393C244.988 574.393 248.747 582.301 253.342 583.754C256.484 584.702 259.697 585.399 262.95 585.838L244.361 591.042C244.361 591.042 236.217 595.83 227.654 594.579C222.614 593.811 217.463 594.24 212.62 595.83V579.603Z" fill="#F7C4A7"/>
        <path opacity="0.1" d="M200.294 511.309C200.294 511.309 220.483 513.932 223.919 509.248Z" fill="black"/>
        <path opacity="0.1" d="M238.299 508.317C238.299 508.317 242.202 510.041 257.814 508.797Z" fill="black"/>
        <path opacity="0.1" d="M199.267 449.665C199.267 449.665 213.962 451.239 216.729 450.295Z" fill="black"/>
        <path opacity="0.1" d="M231.109 449.665C231.109 449.665 245.804 451.239 248.57 450.295Z" fill="black"/>
        <path opacity="0.1" d="M213.946 578.141C213.946 578.141 217.895 596.949 213.946 597.613C209.998 598.277 204.403 594.515 204.403 594.095C204.403 593.675 206.891 581.709 206.891 581.709L213.946 578.141Z" fill="black"/>
        <path d="M213.949 578.141C213.949 578.141 217.891 596.949 213.949 597.613C210.007 598.277 204.403 594.515 204.403 594.095C204.403 593.675 206.89 581.709 206.89 581.709L213.949 578.141Z" fill="#575988"/>
        <path opacity="0.1" d="M194.728 446.86C192.998 450.936 192.385 455.747 194.218 459.773C195.617 462.846 198.356 465.334 198.882 468.677C199.544 472.875 196.485 477.133 197.629 481.221C198.063 482.782 199.077 484.106 200.108 485.347C203.243 489.115 207.408 492.766 212.246 492.474C213.016 484.873 206.551 477.497 208.666 470.166C209.425 467.54 211.204 465.356 212.278 462.852C214.062 458.698 213.808 453.954 213.162 449.469C212.224 442.96 209.848 434.983 203.503 431.938C200.591 430.537 196.452 430.432 195.416 434.239C194.847 436.269 196.176 438.177 196.355 440.163C196.577 442.684 195.688 444.598 194.728 446.86Z" fill="black"/>
        <path d="M194.728 445.933C192.998 450.01 192.385 454.815 194.218 458.847C195.617 461.914 198.356 464.408 198.882 467.745C199.544 471.943 196.485 476.202 197.629 480.289C198.063 481.851 199.077 483.18 200.108 484.421C203.243 488.183 207.408 491.835 212.246 491.543C213.016 483.941 206.551 476.566 208.666 469.235C209.425 466.609 211.204 464.424 212.278 461.92C214.062 457.766 213.808 453.022 213.162 448.537C212.224 442.028 209.848 434.051 203.503 431.006C200.591 429.605 196.452 429.505 195.416 433.306C194.847 435.336 196.176 437.245 196.355 439.231C196.577 441.752 195.688 443.666 194.728 445.933Z" fill="#965D7B"/>
        <path opacity="0.1" d="M196.186 397.786C196.186 397.786 226.916 393.662 227.759 399.846C228.602 406.031 255.76 416.15 255.76 416.15L249.021 399.846L236.601 379.635C236.601 379.635 213.858 378.005 212.815 379.635C211.773 381.265 199.758 386.646 199.758 386.646L196.186 397.786Z" fill="black"/>
        <path d="M196.186 397.786C196.186 397.786 226.916 393.662 227.759 399.846C228.602 406.031 255.76 416.15 255.76 416.15L249.021 399.846L236.601 379.635C236.601 379.635 213.858 378.005 212.815 379.635C211.773 381.265 199.758 386.646 199.758 386.646L196.186 397.786Z" fill="#965D7B"/>
        <path opacity="0.1" d="M249.032 442.003C250.548 443.767 251.618 445.851 252.159 448.088C252.676 450.231 252.721 452.462 253.188 454.605C254.234 459.17 257.344 463.008 260.583 466.463C261.634 467.715 262.918 468.765 264.367 469.557C265.852 470.268 267.741 470.415 269.113 469.557C267.809 468.513 267.1 466.922 266.633 465.348C265.975 463.145 265.683 460.855 265.767 458.563C265.908 454.736 267.061 450.696 265.424 447.208C264.48 445.191 262.719 443.66 260.926 442.288C259.678 441.306 258.333 440.447 256.911 439.724C254.256 438.439 251.22 437.876 248.29 437.592C244.478 437.214 247.812 440.604 249.032 442.003Z" fill="black"/>
        <path d="M249.032 442.013C250.549 443.773 251.62 445.855 252.159 448.091C252.676 450.234 252.721 452.464 253.188 454.607C254.234 459.171 257.344 463.009 260.583 466.463C261.634 467.715 262.918 468.765 264.367 469.557C265.852 470.268 267.741 470.415 269.113 469.557C267.809 468.513 267.1 466.928 266.633 465.348C265.975 463.146 265.683 460.856 265.767 458.565C265.908 454.738 267.061 450.699 265.424 447.211C264.48 445.2 262.719 443.669 260.926 442.292C259.68 441.306 258.334 440.446 256.911 439.723C254.256 438.438 251.22 437.875 248.29 437.591C244.478 437.219 247.812 440.608 249.032 442.013Z" fill="#965D7B"/>
        <g clip-path="url(#clip1)">
            <path d="M522.991 552.723C522.991 552.723 518.235 557.948 522.013 565.852L484.024 580.681L480.379 581.373L478.7 574.761L479.839 566.419V561.853L522.991 552.723Z" fill="#D5D6DB"/>
            <path d="M403.031 549.343L455.609 540.718L525.281 550.707L482.007 564.73L403.031 549.343Z" fill="#3A3768"/>
            <path d="M403.023 549.343C403.023 549.343 398.103 557.729 403.77 565.474L481.741 580.681C481.741 580.681 476.903 573.996 481.999 564.728L403.023 549.343Z" fill="#3A3768"/>
            <path opacity="0.1" d="M403.023 549.343C403.023 549.343 398.103 557.729 403.77 565.474L481.741 580.681C481.741 580.681 476.903 573.996 481.999 564.728L457.342 559.924L403.023 549.343Z" fill="black"/>
            <path opacity="0.1" d="M405.353 552.251C405.353 552.251 402.544 558.384 405.353 562.357Z" fill="black"/>
            <path d="M481.749 580.681L525.281 563.963C525.281 563.963 527.713 564.435 526.139 566.041C524.565 567.647 482.589 582.287 482.589 582.287L403.779 565.474L481.749 580.681Z" fill="#3A3768"/>
            <path opacity="0.1" d="M481.749 580.681L525.281 563.963C525.281 563.963 527.713 564.435 526.139 566.041C524.565 567.647 482.589 582.287 482.589 582.287L403.779 565.474L481.749 580.681Z" fill="black"/>
            <path opacity="0.1" d="M478.181 566.419C478.181 566.419 473.984 570.952 478.181 577.753Z" fill="black"/>
            <path opacity="0.1" d="M498.505 566.344L479.677 571.998L479.743 572.177L498.571 566.523L498.505 566.344Z" fill="black"/>
            <path opacity="0.1" d="M502.279 565.781L479.674 573.518L479.748 573.694L502.353 565.957L502.279 565.781Z" fill="black"/>
            <path opacity="0.1" d="M505.739 565.751L479.797 575.308L479.876 575.483L505.819 565.926L505.739 565.751Z" fill="black"/>
            <path opacity="0.1" d="M509.508 564.933L480.102 576.889L480.188 577.061L509.594 565.105L509.508 564.933Z" fill="black"/>
            <path opacity="0.1" d="M512.669 564.934L480.332 577.656L480.416 577.829L512.753 565.107L512.669 564.934Z" fill="black"/>
            <path opacity="0.1" d="M519.591 563.876L480.821 578.948L480.904 579.122L519.675 564.05L519.591 563.876Z" fill="black"/>
            <path opacity="0.45" d="M422.565 550.267L459.504 543.278L482.007 547.15L451.738 555.934L422.565 550.267Z" fill="white"/>
            <path d="M525.281 550.707C525.281 550.707 527.188 551.401 526.07 552.47C524.951 553.539 482.007 564.728 482.007 564.728L525.281 550.707Z" fill="#3A3768"/>
            <path d="M524.964 531.937C524.964 531.937 520.206 541.32 523.983 549.222L485.995 559.896L482.358 560.589L480.679 553.977L481.802 545.633V541.067L524.964 531.937Z" fill="#D5D6DB"/>
            <path d="M405.011 528.56L457.59 519.932L527.262 529.922L483.987 543.944L405.011 528.56Z" fill="#6C63FF"/>
            <path d="M405.011 528.558C405.011 528.558 400.085 536.943 405.751 544.689L483.722 559.896C483.722 559.896 478.882 553.21 483.978 543.944L405.011 528.558Z" fill="#6C63FF"/>
            <path opacity="0.1" d="M407.334 531.465C407.334 531.465 404.524 537.601 407.334 541.572Z" fill="black"/>
            <path d="M483.731 559.896L527.26 547.333C527.26 547.333 529.694 547.806 528.12 549.411C526.546 551.017 484.57 561.501 484.57 561.501L405.76 544.689L483.731 559.896Z" fill="#6C63FF"/>
            <path opacity="0.1" d="M483.731 559.896L527.26 547.333C527.26 547.333 529.694 547.806 528.12 549.411C526.546 551.017 484.57 561.501 484.57 561.501L405.76 544.689L483.731 559.896Z" fill="black"/>
            <path opacity="0.1" d="M480.163 545.633C480.163 545.633 475.965 550.167 480.163 556.968Z" fill="black"/>
            <path opacity="0.1" d="M500.487 545.558L481.659 551.212L481.725 551.391L500.553 545.737L500.487 545.558Z" fill="black"/>
            <path opacity="0.1" d="M504.259 544.996L481.654 552.733L481.729 552.909L504.334 545.172L504.259 544.996Z" fill="black"/>
            <path opacity="0.1" d="M507.718 544.967L481.775 554.524L481.855 554.699L507.797 545.142L507.718 544.967Z" fill="black"/>
            <path opacity="0.1" d="M511.489 544.147L482.083 556.103L482.17 556.275L511.576 544.319L511.489 544.147Z" fill="black"/>
            <path opacity="0.1" d="M514.651 544.15L482.314 556.872L482.398 557.046L514.735 544.323L514.651 544.15Z" fill="black"/>
            <path opacity="0.1" d="M521.573 543.094L482.803 558.166L482.886 558.339L521.656 543.267L521.573 543.094Z" fill="black"/>
            <path opacity="0.3" d="M424.544 529.482L461.483 522.492L483.987 526.365L453.718 535.149L424.544 529.482Z" fill="white"/>
            <path d="M527.26 529.922C527.26 529.922 529.17 530.615 528.049 531.686C526.928 532.757 483.987 543.944 483.987 543.944L527.26 529.922Z" fill="#6C63FF"/>
            <path opacity="0.1" d="M547.127 493.277C547.127 493.277 539.152 492.845 540.083 497.881C540.083 497.881 539.897 498.771 540.793 499.175C540.793 499.175 540.808 498.797 541.611 498.928C541.898 498.971 542.19 498.984 542.48 498.965C542.868 498.94 543.236 498.802 543.53 498.572V498.572C543.53 498.572 545.775 497.737 546.646 494.435C546.646 494.435 547.293 493.716 547.276 493.53L545.929 494.048C545.929 494.048 546.388 494.923 546.027 495.65C546.027 495.65 545.983 494.08 545.725 494.116C545.673 494.116 545.024 494.42 545.024 494.42C545.024 494.42 545.815 495.945 545.219 497.052C545.219 497.052 545.446 495.174 544.776 494.53L543.828 495.029C543.828 495.029 544.753 496.602 544.126 497.887C544.126 497.887 544.287 495.916 543.628 495.149L542.77 495.754C542.77 495.754 543.639 497.305 543.108 498.37C543.108 498.37 543.039 496.077 542.583 495.903C542.583 495.903 541.832 496.5 541.716 496.746C541.716 496.746 542.312 497.879 541.943 498.467C541.943 498.467 541.716 496.938 541.523 496.931C541.523 496.931 540.774 497.943 540.696 498.631C540.733 497.99 540.956 497.368 541.343 496.829C540.91 496.903 540.511 497.088 540.195 497.363C540.195 497.363 540.312 496.647 541.527 496.585C541.527 496.585 542.147 495.816 542.312 495.769C542.312 495.769 541.103 495.678 540.369 495.971C540.369 495.971 541.015 495.297 542.533 495.593L543.372 494.97C543.372 494.97 541.779 494.781 541.106 494.991C541.106 494.991 541.882 494.394 543.601 494.828L544.525 494.331C544.525 494.331 543.167 494.069 542.359 494.163C542.359 494.163 543.211 493.75 544.795 494.197L545.456 493.931C545.456 493.931 544.462 493.755 544.17 493.727C543.878 493.699 543.863 493.627 543.863 493.627C544.493 493.532 545.14 493.598 545.731 493.816C545.731 493.816 547.152 493.357 547.127 493.277Z" fill="#6C63FF"/>
            <path opacity="0.1" d="M448.357 503.69C448.357 503.69 444.882 497.205 440.457 500.401C440.457 500.401 439.502 500.688 439.549 501.589C439.549 501.589 439.916 501.417 440.178 502.113C440.276 502.358 440.406 502.593 440.564 502.812C440.779 503.108 441.095 503.333 441.465 503.454C441.465 503.454 443.368 504.81 446.997 503.885C446.997 503.885 448.011 504.041 448.177 503.932L447.018 503.125C447.018 503.125 446.389 503.913 445.511 503.983C445.511 503.983 447.014 503.184 446.852 502.999C446.819 502.961 446.223 502.596 446.223 502.596C446.223 502.596 445.129 503.962 443.765 504.032C443.765 504.032 445.696 503.295 445.994 502.455L445.05 501.952C445.05 501.952 443.973 503.448 442.422 503.58C442.422 503.58 444.411 502.747 444.833 501.856L443.83 501.478C443.83 501.478 442.749 502.917 441.456 503.021C441.456 503.021 443.648 501.848 443.593 501.404C443.593 501.404 442.646 501.106 442.353 501.134C442.353 501.134 441.551 502.152 440.795 502.152C440.795 502.152 442.166 501.228 442.082 501.079C442.082 501.079 440.734 500.985 440.025 501.268C440.664 500.982 441.376 500.852 442.088 500.89C441.805 500.587 441.43 500.364 441.009 500.25C441.009 500.25 441.761 499.993 442.413 500.917C442.413 500.917 443.463 501.028 443.587 501.136C443.587 501.136 443.085 500.142 442.445 499.71C442.445 499.71 443.415 499.885 443.857 501.221L444.875 501.584C444.875 501.584 444.29 500.239 443.75 499.814C443.75 499.814 444.707 500.133 445.125 501.703L446.057 502.186C446.057 502.186 445.652 500.99 445.165 500.403C445.165 500.403 445.981 500.871 446.319 502.334L446.901 502.723C446.901 502.723 446.586 501.856 446.481 501.614C446.376 501.372 446.428 501.323 446.428 501.323C446.828 501.771 447.081 502.311 447.159 502.881C447.159 502.881 448.282 503.747 448.357 503.69Z" fill="#6C63FF"/>
            <path opacity="0.1" d="M528.905 484.115C528.905 484.115 525.432 477.63 521.005 480.826C521.005 480.826 520.052 481.114 520.096 482.015C520.096 482.015 520.466 481.845 520.726 482.538C520.824 482.785 520.954 483.02 521.114 483.239C521.328 483.535 521.644 483.759 522.013 483.879V483.879C522.013 483.879 523.918 485.236 527.545 484.312C527.545 484.312 528.559 484.467 528.727 484.357L527.575 483.549C527.575 483.549 526.945 484.338 526.07 484.408C526.07 484.408 527.57 483.607 527.409 483.422C527.375 483.384 526.779 483.02 526.779 483.02C526.779 483.02 525.688 484.385 524.321 484.455C524.321 484.455 526.254 483.719 526.552 482.88L525.593 482.381C525.593 482.381 524.519 483.875 522.966 484.01C522.966 484.01 524.955 483.175 525.379 482.283L524.374 481.905C524.374 481.905 523.293 483.346 522.002 483.448C522.002 483.448 524.191 482.275 524.137 481.833C524.137 481.833 523.192 481.533 522.898 481.563C522.898 481.563 522.097 482.58 521.339 482.58C521.339 482.58 522.712 481.656 522.628 481.507C522.628 481.507 521.28 481.412 520.569 481.695C521.208 481.409 521.919 481.279 522.632 481.318C522.35 481.014 521.976 480.791 521.555 480.677C521.555 480.677 522.307 480.42 522.959 481.344C522.959 481.344 524.009 481.457 524.132 481.565C524.132 481.565 523.631 480.57 522.989 480.137C522.989 480.137 523.958 480.315 524.401 481.658L525.421 482.02C525.421 482.02 524.836 480.673 524.296 480.248C524.296 480.248 525.253 480.568 525.669 482.137L526.603 482.621C526.603 482.621 526.196 481.427 525.709 480.838C525.709 480.838 526.527 481.306 526.863 482.768L527.444 483.158C527.444 483.158 527.132 482.29 527.025 482.049C526.918 481.807 526.972 481.76 526.972 481.76C527.37 482.209 527.622 482.748 527.7 483.318C527.7 483.318 528.84 484.176 528.905 484.115Z" fill="#6C63FF"/>
            <path opacity="0.1" d="M540.006 516.194C540.006 516.194 536.532 509.707 532.1 512.903C532.1 512.903 531.147 513.19 531.191 514.091C531.191 514.091 531.56 513.921 531.82 514.615C531.918 514.861 532.047 515.096 532.207 515.315C532.421 515.611 532.736 515.836 533.105 515.956C533.105 515.956 535.011 517.314 538.639 516.388C538.639 516.388 539.651 516.545 539.819 516.434L538.66 515.627C538.66 515.627 538.031 516.417 537.154 516.487C537.154 516.487 538.654 515.686 538.493 515.5C538.459 515.463 537.863 515.098 537.863 515.098C537.863 515.098 536.772 516.464 535.405 516.536C535.405 516.536 537.338 515.797 537.636 514.958L536.69 514.456C536.69 514.456 535.615 515.952 534.062 516.084C534.062 516.084 536.052 515.249 536.476 514.358L535.47 513.98C535.47 513.98 534.389 515.419 533.099 515.523C533.099 515.523 535.29 514.35 535.235 513.906C535.235 513.906 534.289 513.606 533.995 513.636C533.995 513.636 533.193 514.652 532.435 514.652C532.435 514.652 533.808 513.729 533.724 513.579C533.724 513.579 532.377 513.485 531.665 513.768C532.305 513.482 533.017 513.352 533.73 513.39C533.448 513.086 533.073 512.864 532.652 512.75C532.652 512.75 533.403 512.491 534.056 513.417C534.056 513.417 535.105 513.528 535.229 513.636C535.229 513.636 534.727 512.642 534.087 512.208C534.087 512.208 535.057 512.385 535.5 513.729L536.518 514.091C536.518 514.091 535.932 512.744 535.393 512.321C535.393 512.321 536.35 512.639 536.765 514.21L537.699 514.692C537.699 514.692 537.292 513.498 536.805 512.909C536.805 512.909 537.624 513.377 537.962 514.841L538.543 515.219C538.543 515.219 538.228 514.352 538.123 514.11C538.018 513.868 538.071 513.821 538.071 513.821C538.47 514.27 538.722 514.809 538.799 515.38C538.799 515.38 539.941 516.25 540.006 516.194Z" fill="#6C63FF"/>
            <path d="M519.83 523.731C518.457 520.374 510.902 520.059 507.623 520.915C505.294 521.525 500.382 522.212 497.759 522.558L497.589 522.413C497.929 522.322 497.937 522.099 497.895 521.768C497.871 521.333 497.878 520.896 497.916 520.461C499.524 520.911 500.955 519.847 500.955 519.847C502.844 519.092 502.336 515.858 502.697 514.973C502.968 514.312 503.26 510.417 503.39 508.475H503.417L503.432 507.823C503.451 507.542 503.459 507.377 503.459 507.377C503.459 507.377 503.644 502.628 504.005 501.667C504.341 500.783 504.614 496.328 504.656 495.622C504.656 495.561 504.656 495.529 504.656 495.529L504.628 495.117C504.647 494.817 504.656 494.483 504.654 494.131C504.654 492.516 504.467 490.482 504.444 490.153C504.444 490.106 504.444 490.049 504.444 489.981C504.458 489.291 504.362 485.838 501.098 484.533C499.896 484.049 498.449 483.473 497.05 482.912C496.689 480.107 495.864 477.317 495.935 474.49C495.935 474.065 495.977 473.64 496.023 473.217C496.023 473.34 496.009 473.465 496.006 473.595C496.006 473.869 496.006 474.145 496.006 474.419C496.13 470.884 497.614 467.331 497.476 463.872C497.463 464.21 497.436 464.55 497.4 464.89C497.473 463.72 497.336 462.547 496.997 461.416C496.871 461.018 496.701 460.606 496.338 460.339C495.995 460.125 495.601 459.985 495.188 459.929C494.195 459.701 493.186 459.532 492.168 459.423C492.013 458.997 491.783 458.596 491.488 458.235C489.36 455.605 486.207 453.134 482.48 452.568C480.61 452.284 478.458 452.52 477.186 453.724C477.054 453.83 476.929 453.943 476.813 454.064C476.129 454.799 475.835 455.764 475.134 456.497C475.088 456.546 475.035 456.591 474.985 456.639C473.612 457.744 471.473 457.974 469.948 458.966C469.679 459.144 469.427 459.342 469.194 459.557C468.579 460.106 468.028 460.709 467.549 461.358C466.862 462.227 466.157 463.131 465.939 464.169C465.5 466.247 467.072 468.217 467.364 470.308C468.015 474.987 462.262 479.14 463.351 483.756C463.642 484.891 464.284 485.928 465.202 486.747C462.959 488.575 461.049 490.349 461.049 490.349V490.455H460.694L460.73 490.833H460.694L460.889 492.883L460.694 495.867C460.694 495.867 460.694 495.899 460.694 495.96V495.975V496.056C460.694 496.056 460.694 496.088 460.694 496.149H460.707C460.772 497.243 461.03 501.176 461.336 502.005C461.697 502.966 461.88 507.716 461.88 507.716C461.88 507.716 462.279 514.428 462.644 515.315C463.009 516.203 462.491 519.428 464.386 520.189C464.94 520.572 465.597 520.817 466.289 520.9C466.193 521.606 466.254 522.118 466.566 522.279C466.7 522.349 466.852 522.388 467.007 522.392C466.879 522.564 466.764 522.743 466.665 522.93C465.913 522.86 465.174 522.703 464.466 522.464C462.43 521.708 455.674 520.008 453.711 521.204C451.749 522.399 447.027 523.484 449.207 528.297C451.388 533.111 452.404 533.231 452.404 533.231C453.075 533.67 453.664 534.203 454.148 534.809C454.803 535.695 460.904 537.722 462.43 537.722C463.078 537.713 463.727 537.742 464.371 537.809C464.371 537.809 462.715 539.116 462.936 539.875C463.156 540.635 462.432 546.714 462.432 546.714C462.432 546.714 464.111 548.236 464.829 546.24L464.854 546.27C464.988 546.434 465.714 547.177 467.081 546.24C467.64 545.858 468.234 545.519 468.856 545.227L475.472 544.385C476.161 544.346 476.853 544.341 477.543 544.371C478.593 544.449 479.623 543.89 480.272 543.457C481.642 543.925 483.183 544.437 483.915 544.624C485.401 545.002 492.231 546.651 493.828 546.136C494.16 546.017 494.455 545.828 494.688 545.584L496.212 545.628L495.499 545.756C495.499 545.756 496.888 545.777 498.777 545.799L498.697 545.841L501.067 545.822C504.534 545.85 508.429 545.86 508.941 545.756C509.743 545.595 513.909 545.709 515.137 545.756H515.479C515.479 545.756 520.057 544.934 518.168 540.754C516.715 537.542 512.251 536.609 510.27 536.352C510.828 536.252 511.309 536.175 511.628 536.129C513.011 535.94 515.697 534.807 515.916 534.42C516.134 534.032 518.386 532.908 518.967 532.268C519.549 531.628 521.209 527.088 519.83 523.731ZM481.915 533.126L481.69 533.192L481.539 533.237L481.25 533.494C481.019 533.354 480.771 533.207 480.513 533.056C480.969 533.08 481.437 533.105 481.915 533.126Z" fill="url(#paint1_linear)"/>
            <path d="M495.297 513.207C495.297 513.207 498.508 520.763 500.334 520.008C502.16 519.252 501.665 516.041 502.013 515.16C502.362 514.28 502.748 507.604 502.748 507.604C502.748 507.604 502.924 502.881 503.272 501.926C503.596 501.047 503.858 496.617 503.902 495.92C503.902 495.86 503.902 495.828 503.902 495.828L503.556 490.349L501.596 489.909L497.05 491.42L496.42 494.656L496.174 495.92L496.069 496.459L495.297 513.207Z" fill="#BE6F72"/>
            <path opacity="0.1" d="M496.355 511.941C496.355 511.941 499.419 514.199 500.343 514.397C501.266 514.596 501.833 516.356 501.833 516.356" fill="black"/>
            <path d="M470.185 513.538C470.185 513.538 466.974 521.094 465.148 520.338C463.322 519.583 463.817 516.371 463.469 515.491C463.12 514.611 462.734 507.935 462.734 507.935C462.734 507.935 462.558 503.212 462.209 502.256C461.886 501.378 461.624 496.948 461.58 496.251C461.58 496.19 461.58 496.158 461.58 496.158L461.928 490.68L463.888 490.24L468.434 491.751L469.064 494.987L469.31 496.251L469.415 496.789L470.185 513.538Z" fill="#BE6F72"/>
            <path d="M491.095 473.1H483.928V483.156H491.095V473.1Z" fill="#3E373A"/>
            <path opacity="0.1" d="M491.095 473.1H483.928V483.156H491.095V473.1Z" fill="black"/>
            <path d="M468.926 521.064C468.926 521.064 466.476 523.488 467.385 523.928C468.294 524.368 474.173 532.617 474.173 532.617C474.173 532.617 493.482 534.758 497.123 531.546C500.764 528.335 500.691 522.598 500.691 522.598C500.691 522.598 497.765 523.164 497.446 522.857C497.127 522.549 495.375 521.064 495.375 521.064C495.375 521.064 470.605 519.711 468.926 521.064Z" fill="#4B4B5B"/>
            <path opacity="0.02" d="M468.926 521.064C468.926 521.064 466.476 523.488 467.385 523.928C468.294 524.368 474.173 532.617 474.173 532.617C474.173 532.617 493.482 534.758 497.123 531.546C500.764 528.335 500.691 522.598 500.691 522.598C500.691 522.598 497.765 523.164 497.446 522.857C497.127 522.549 495.375 521.064 495.375 521.064C495.375 521.064 470.605 519.711 468.926 521.064Z" fill="black"/>
            <path d="M503.686 490.429L497.39 494.962L495.486 495.087L494.787 495.132L483.048 495.907L470.875 495.106L469.064 494.987L466.755 494.836L461.928 490.68C461.928 490.68 465.345 487.385 468.338 485.162C469.517 484.283 470.632 483.573 471.444 483.294L471.583 483.25C472.094 483.071 472.55 482.785 472.913 482.415C475.277 480.222 477.461 474.81 477.461 474.81C477.461 474.81 487.886 469.962 486.627 476.321C485.368 482.68 491.314 481.108 491.314 481.108L493.274 481.913L494.048 482.232L496.023 483.046L500.479 484.886C503.976 486.335 503.686 490.429 503.686 490.429Z" fill="#BE6F72"/>
            <path opacity="0.1" d="M482.559 479.988C487.737 479.988 491.935 476.21 491.935 471.549C491.935 466.889 487.737 463.111 482.559 463.111C477.381 463.111 473.184 466.889 473.184 471.549C473.184 476.21 477.381 479.988 482.559 479.988Z" fill="black"/>
            <path opacity="0.1" d="M503.701 496.44H461.58C461.58 496.379 461.58 496.347 461.58 496.347L461.928 490.869C461.928 490.869 465.345 487.574 468.338 485.351L494.783 484.406L496.013 483.239L500.468 485.079C503.967 486.526 503.686 490.619 503.686 490.619C503.686 490.619 504.164 495.363 503.701 496.44Z" fill="black"/>
            <path d="M503.701 496.251H461.58C461.58 496.19 461.58 496.158 461.58 496.158L461.928 490.68C461.928 490.68 465.345 487.385 468.338 485.162L494.783 484.217L496.013 483.05L500.468 484.89C503.967 486.337 503.686 490.431 503.686 490.431C503.686 490.431 504.164 495.174 503.701 496.251Z" fill="#E7C7CA"/>
            <path opacity="0.1" d="M475.807 480.889C475.807 480.889 482.452 488.509 491.303 480.732C500.154 472.955 492.283 498.079 492.283 498.079L473.184 500.12L475.807 480.889Z" fill="black"/>
            <path d="M475.807 481.267C475.807 481.267 482.452 488.887 491.303 481.11C500.154 473.332 492.283 498.457 492.283 498.457L473.184 500.497L475.807 481.267Z" fill="#E7C7CA"/>
            <path opacity="0.1" d="M494.038 482.604L494.741 492.255L495.494 495.467L496.069 497.923C496.069 497.923 497.539 516.813 497.119 517.758C496.699 518.702 497.329 519.458 497.417 519.961C497.505 520.463 497.329 521.725 497.398 522.292C497.467 522.858 497.398 523.11 495.79 522.908C494.183 522.705 491.941 522.354 491.941 522.354C491.941 522.354 486.274 522.732 484.316 522.103C482.358 521.474 478.649 521.472 478.649 521.472C478.649 521.472 473.052 521.598 471.234 521.41C469.417 521.221 468.434 523.425 467.246 522.794C466.059 522.163 468.644 516.058 469.484 514.293C470.323 512.529 468.365 508.059 468.365 508.059L470.884 495.484L471.444 492.633V483.671L471.583 483.628C472.093 483.449 472.55 483.162 472.913 482.793L473.543 491.811L493.272 492.442V482.292" fill="black"/>
            <path d="M494.038 482.226L494.741 491.878L495.494 495.089L496.069 497.545C496.069 497.545 497.539 516.436 497.119 517.38C496.699 518.325 497.329 519.08 497.417 519.583C497.505 520.085 497.329 521.347 497.398 521.914C497.467 522.481 497.398 522.732 495.79 522.53C494.183 522.328 491.941 521.976 491.941 521.976C491.941 521.976 486.274 522.354 484.316 521.725C482.358 521.096 478.649 521.094 478.649 521.094C478.649 521.094 473.052 521.221 471.234 521.032C469.417 520.843 468.434 523.047 467.246 522.416C466.059 521.785 468.644 515.68 469.484 513.916C470.323 512.151 468.365 507.682 468.365 507.682L470.884 495.106L471.444 492.255V483.294L471.583 483.25C472.093 483.071 472.55 482.785 472.913 482.415L473.543 491.434L493.272 492.065V481.915" fill="#E7C7CA"/>
            <path opacity="0.1" d="M496.307 462.085C496.187 461.69 496.021 461.28 495.677 461.016C495.348 460.803 494.969 460.663 494.569 460.608C493.611 460.381 492.638 460.213 491.656 460.105C491.515 459.686 491.303 459.289 491.026 458.928C488.969 456.314 485.926 453.848 482.345 453.291C480.471 452.998 478.299 453.261 477.098 454.591C476.439 455.322 476.156 456.291 475.491 457.009C474.208 458.403 471.893 458.575 470.277 459.654C469.415 460.22 468.789 461.042 468.178 461.839C467.517 462.703 466.837 463.602 466.627 464.633C466.208 466.694 467.721 468.659 468 470.739C468.63 475.392 463.089 479.519 464.136 484.11C464.747 486.786 467.494 488.672 470.336 489.628C471.337 489.966 472.481 490.302 472.949 491.167C473.159 491.545 473.195 491.981 473.392 492.363C474.055 493.636 476.236 493.685 477.407 492.758C478.578 491.83 478.947 490.33 479.086 488.931C479.648 482.818 476.928 476.778 477.245 470.65C477.34 468.797 477.919 466.694 479.764 465.855C482.247 464.722 485.233 466.611 487.966 466.25C489.259 469.082 489.534 472.208 488.751 475.188C488.316 476.818 487.565 478.399 487.51 480.08C487.429 482.64 488.963 484.979 490.289 487.242C490.574 487.665 490.764 488.134 490.85 488.623C490.871 489.118 490.768 489.612 490.55 490.068C489.8 491.883 488.507 493.568 488.36 495.501C488.317 495.726 488.374 495.958 488.518 496.147C488.666 496.273 488.857 496.35 489.059 496.366C491.326 496.715 493.286 494.908 494.392 493.092C495.626 491.087 496.344 488.859 496.495 486.571C496.724 482.725 495.192 478.941 495.287 475.091C495.396 470.714 497.593 466.307 496.307 462.085Z" fill="black"/>
            <path d="M496.516 461.896C496.397 461.501 496.231 461.091 495.887 460.827C495.558 460.614 495.178 460.475 494.779 460.419C493.821 460.192 492.848 460.024 491.865 459.916C491.725 459.497 491.513 459.1 491.236 458.739C489.179 456.125 486.136 453.66 482.555 453.102C480.681 452.809 478.509 453.072 477.308 454.402C476.649 455.133 476.366 456.102 475.7 456.82C474.418 458.214 472.103 458.386 470.487 459.465C469.624 460.031 468.999 460.853 468.388 461.65C467.727 462.514 467.047 463.413 466.837 464.444C466.417 466.505 467.931 468.47 468.21 470.55C468.839 475.203 463.299 479.33 464.346 483.921C464.957 486.598 467.704 488.483 470.546 489.439C471.547 489.777 472.691 490.113 473.159 490.978C473.369 491.356 473.404 491.793 473.602 492.174C474.265 493.447 476.446 493.496 477.617 492.569C478.788 491.641 479.157 490.141 479.296 488.742C479.858 482.629 477.138 476.589 477.455 470.461C477.55 468.608 478.129 466.505 479.974 465.667C482.457 464.533 485.443 466.422 488.176 466.061C489.469 468.893 489.743 472.019 488.961 474.999C488.526 476.629 487.775 478.21 487.72 479.891C487.638 482.451 489.173 484.79 490.499 487.053C490.784 487.476 490.974 487.945 491.06 488.434C491.08 488.93 490.978 489.423 490.759 489.879C490.01 491.694 488.717 493.379 488.57 495.312C488.527 495.537 488.584 495.769 488.728 495.958C488.876 496.084 489.066 496.161 489.269 496.177C491.536 496.527 493.496 494.719 494.602 492.903C495.835 490.898 496.554 488.67 496.705 486.382C496.934 482.536 495.402 478.752 495.496 474.902C495.606 470.525 497.803 466.118 496.516 461.896Z" fill="#3E373A"/>
            <path d="M491.88 545.539L500.206 545.779L499.012 540.221L492.634 540.767L491.88 545.539Z" fill="#C3C7D9"/>
            <path d="M517.679 532.366C517.118 532.995 514.95 534.129 514.74 534.507C514.53 534.884 511.943 536.018 510.612 536.207C509.281 536.396 505.086 537.215 504.316 537.656C503.764 537.973 499.333 538.978 496.422 539.535C495.633 539.703 494.835 539.832 494.031 539.922C492.772 539.985 478.991 535.767 478.991 535.767L481.648 533.311L481.795 533.265C482.547 533.037 486.018 531.981 487.945 531.478C490.115 530.912 492.634 528.582 492.634 528.582C492.634 528.582 496.34 527.449 496.831 527.322C497.322 527.196 495.572 522.915 495.572 522.915C495.572 522.915 503.617 521.91 506.765 521.058C509.913 520.206 517.19 520.522 518.518 523.86C519.847 527.198 518.247 531.737 517.679 532.366Z" fill="#4B4B5B"/>
            <path d="M481.019 543.007C481.019 543.007 479.411 544.519 477.801 544.394C476.192 544.269 470.563 544.772 470.563 544.772C469.543 545.138 468.587 545.636 467.727 546.251C466.411 547.184 465.712 546.44 465.582 546.281L465.559 546.251C464.858 548.236 463.25 546.723 463.25 546.723C463.25 546.723 463.949 540.678 463.735 539.922C463.521 539.167 465.118 537.869 465.118 537.869L467.007 537.436L471.793 536.333L478.649 538.474L481.019 543.007Z" fill="#E7C7CA"/>
            <path opacity="0.1" d="M466.999 537.436L465.582 546.281L465.559 546.251C464.858 548.236 463.25 546.723 463.25 546.723C463.25 546.723 463.949 540.678 463.735 539.922C463.521 539.167 465.118 537.869 465.118 537.869L466.999 537.436Z" fill="black"/>
            <path opacity="0.1" d="M476.901 512.278C476.901 512.278 480.607 513.411 483.827 512.278Z" fill="black"/>
            <path opacity="0.1" d="M489.555 514.42C489.555 514.42 491.093 515.109 492.283 514.42Z" fill="black"/>
            <path opacity="0.1" d="M489.555 516.06C489.555 516.06 492.143 516.371 492.634 515.742Z" fill="black"/>
            <path opacity="0.1" d="M488.715 519.583C488.715 519.583 493.576 519.016 494.783 518.26Z" fill="black"/>
            <path opacity="0.1" d="M473.883 518.26C473.883 518.26 476.611 519.645 478.641 519.583Z" fill="black"/>
            <path opacity="0.1" d="M496.42 539.535C495.631 539.703 494.833 539.832 494.029 539.922C492.77 539.985 478.989 535.767 478.989 535.767L481.646 533.311L481.793 533.265C482.213 533.532 482.557 533.76 482.803 533.934C483.959 534.754 485.076 533.683 485.496 533.683C485.915 533.683 489.553 536.39 489.553 536.39C489.553 536.39 492.911 537.083 493.471 537.712C494.031 538.341 495.99 538.217 496.338 538.657C496.443 538.793 496.456 539.127 496.42 539.535Z" fill="black"/>
            <path d="M470.563 523.172C470.563 523.172 467.167 523.348 465.209 522.605C463.25 521.863 456.744 520.15 454.855 521.353C452.966 522.556 448.418 523.62 450.517 528.407C452.616 533.194 453.596 533.318 453.596 533.318C454.245 533.757 454.812 534.286 455.275 534.886C455.905 535.768 461.781 537.782 463.25 537.782C464.72 537.782 467.307 537.782 470.945 540.049C474.582 542.316 477.871 542.569 477.871 542.569C477.871 542.569 482.488 544.269 483.926 544.647C485.363 545.025 491.933 546.661 493.473 546.158C495.014 545.656 495.992 542.505 495.992 542.505C495.992 542.505 496.691 539.671 496.34 539.231C495.99 538.791 494.031 538.916 493.473 538.287C492.915 537.658 489.555 536.964 489.555 536.964C489.555 536.964 485.926 534.255 485.506 534.255C485.086 534.255 483.97 535.324 482.813 534.507C480.51 532.971 478.089 531.582 475.57 530.351C472.913 529.091 470.563 523.172 470.563 523.172Z" fill="#4B4B5B"/>
            <path opacity="0.1" d="M463.735 524.999C464.34 524.888 464.965 524.904 465.561 525.045C466.158 525.187 466.71 525.451 467.175 525.817C468.854 527.077 474.504 529.606 474.504 529.606" fill="black"/>
            <path opacity="0.1" d="M505.715 524.919C505.715 524.919 498.229 525.94 496.831 527.324Z" fill="black"/>
            <path d="M514.321 545.779H513.991C512.807 545.741 508.797 545.628 508.024 545.779C507.115 545.968 495.081 545.779 495.081 545.779L497.434 545.338C497.434 545.338 496.561 542.584 497.115 542.356C497.115 542.356 493.966 540.489 496.34 539.229C498.714 537.969 501.272 538.5 501.272 538.5L507.231 536.683L508.375 536.333C508.375 536.333 515.091 536.649 516.908 540.805C518.726 544.961 514.321 545.779 514.321 545.779Z" fill="#E7C7CA"/>
            <path opacity="0.1" d="M514.321 545.779H513.991C515.945 544.328 520.365 539.911 507.231 536.692L508.375 536.343C508.375 536.343 515.091 536.658 516.908 540.814C518.726 544.97 514.321 545.779 514.321 545.779Z" fill="black"/>
            <path d="M501.973 540.882C502.176 540.882 502.341 540.734 502.341 540.552C502.341 540.369 502.176 540.221 501.973 540.221C501.77 540.221 501.606 540.369 501.606 540.552C501.606 540.734 501.77 540.882 501.973 540.882Z" fill="#4B4B5B"/>
            <path d="M499.839 541.428C500.042 541.428 500.206 541.28 500.206 541.097C500.206 540.915 500.042 540.767 499.839 540.767C499.636 540.767 499.472 540.915 499.472 541.097C499.472 541.28 499.636 541.428 499.839 541.428Z" fill="#4B4B5B"/>
            <g opacity="0.1">
                <path opacity="0.1" d="M489.439 471.236C489.521 469.159 489.11 467.089 488.235 465.165C485.506 465.531 482.517 463.637 480.032 464.77C478.194 465.609 477.617 467.711 477.514 469.565C477.489 470.054 477.484 470.543 477.495 471.032C477.495 470.859 477.495 470.683 477.514 470.509C477.61 468.656 478.188 466.553 480.032 465.715C482.517 464.581 485.502 466.47 488.235 466.109C488.976 467.739 489.384 469.476 489.439 471.236V471.236Z" fill="black"/>
                <path opacity="0.1" d="M468.296 470.892C468.332 470.48 468.323 470.066 468.269 469.656C468.046 467.994 467.037 466.405 466.854 464.784C466.619 466.74 468.002 468.617 468.269 470.601C468.296 470.703 468.296 470.794 468.296 470.892Z" fill="black"/>
                <path opacity="0.1" d="M479.355 487.844C479.224 489.246 478.857 490.744 477.675 491.674C476.494 492.603 474.317 492.552 473.66 491.279C473.451 490.901 473.419 490.461 473.215 490.083C472.75 489.218 471.604 488.881 470.602 488.543C467.759 487.586 465.015 485.71 464.405 483.025C464.35 482.782 464.313 482.536 464.293 482.289C464.242 482.851 464.279 483.417 464.405 483.97C465.015 486.647 467.763 488.53 470.602 489.488C471.604 489.826 472.75 490.162 473.215 491.027C473.425 491.405 473.461 491.842 473.66 492.223C474.322 493.496 476.502 493.546 477.675 492.618C478.849 491.691 479.214 490.191 479.355 488.789C479.418 488.051 479.44 487.311 479.42 486.571C479.42 487 479.392 487.423 479.355 487.844Z" fill="black"/>
                <path opacity="0.1" d="M495.566 474.007C495.566 474.281 495.566 474.553 495.566 474.825C495.683 471.311 497.115 467.779 496.974 464.339C496.865 467.52 495.645 470.773 495.566 474.007Z" fill="black"/>
                <path opacity="0.1" d="M491.062 488.22C491.113 487.996 491.129 487.767 491.11 487.538C491.025 487.049 490.835 486.58 490.55 486.157C489.336 484.079 487.953 481.952 487.79 479.646C487.79 479.744 487.775 479.835 487.773 479.94C487.689 482.498 489.223 484.839 490.55 487.102C490.775 487.452 490.947 487.829 491.062 488.22V488.22Z" fill="black"/>
                <path opacity="0.1" d="M496.772 485.487C496.616 487.775 495.892 490.004 494.655 492.008C493.547 493.823 491.588 495.631 489.32 495.282C489.116 495.266 488.925 495.188 488.778 495.061C488.735 495.017 488.702 494.967 488.679 494.913C488.654 495.061 488.633 495.21 488.621 495.361C488.577 495.586 488.634 495.817 488.778 496.005C488.925 496.132 489.116 496.21 489.32 496.226C491.588 496.576 493.547 494.768 494.655 492.952C495.892 490.948 496.616 488.72 496.772 486.431C496.798 485.989 496.8 485.549 496.785 485.109C496.781 485.236 496.781 485.36 496.772 485.487Z" fill="black"/>
            </g>
            <path opacity="0.1" d="M497.115 542.356C497.115 542.356 502.427 544.362 505.93 539.923" stroke="black" stroke-miterlimit="10"/>
            <path opacity="0.1" d="M498.16 545.862C498.16 545.862 502.498 543.323 508.024 545.779" stroke="black" stroke-miterlimit="10"/>
            <path opacity="0.1" d="M469.121 545.286C469.121 545.286 470.942 541.587 475.808 544.407" stroke="black" stroke-miterlimit="10"/>
            <path opacity="0.1" d="M463.215 490.585L466.93 487.563C466.93 487.563 481.334 486.713 481.93 491.12C481.93 491.12 487.036 485.895 497.776 487.059L502.32 490.315L489.76 495.276L477.556 499.086L468.567 495.465L463.215 490.585Z" fill="black"/>
            <path d="M463.215 490.774L466.93 487.752C466.93 487.752 481.334 486.902 481.93 491.309C481.93 491.309 487.036 486.084 497.776 487.247L502.32 490.504L489.76 495.465L477.556 499.275L468.567 495.654L463.215 490.774Z" fill="#D5D6DB"/>
            <path opacity="0.1" d="M461.571 491.152L463.215 508.847L480.635 509.635L479.879 492.015L479.865 491.719L461.571 491.152Z" fill="black"/>
            <path d="M461.571 490.774L463.215 508.469L480.635 509.257L479.879 491.638L479.865 491.341L461.571 490.774Z" fill="#6C63FF"/>
            <path opacity="0.1" d="M503.117 490.774L485.147 493.2V510.974L502.708 508.69L503.117 490.774Z" fill="black"/>
            <path d="M503.117 490.397L485.147 492.822V510.596L502.708 508.313L503.117 490.397Z" fill="#6C63FF"/>
            <path opacity="0.3" d="M498.88 494.734L489.173 495.705L489.385 498.682L498.873 497.749L498.88 494.734Z" fill="white"/>
            <path d="M464.159 517.945L465.148 520.338C465.148 520.338 466.617 521.472 468.225 520.905C469.832 520.338 471.234 520.057 471.933 519.505C472.632 518.954 473.612 516.182 473.612 516.182C473.612 516.182 474.592 513.16 475.57 512.404C476.548 511.649 479.138 501.238 475.57 502.256C472.002 503.274 469.274 512.72 469.274 512.72C469.274 512.72 468.644 513.411 467.736 513.475C466.827 513.54 465.007 513.349 464.657 514.042C464.306 514.735 463.11 516.56 464.159 517.945Z" fill="#BE6F72"/>
            <path opacity="0.1" d="M485.147 493.198C484.227 493.385 483.271 493.375 482.356 493.17C481.441 492.964 480.592 492.569 479.877 492.015L480.635 509.633C480.635 509.633 482.419 511.371 485.147 510.974V493.198Z" fill="black"/>
            <path d="M485.147 492.82C484.227 493.007 483.271 492.997 482.356 492.792C481.441 492.586 480.592 492.191 479.877 491.638L480.635 509.255C480.635 509.255 482.419 510.993 485.147 510.596V492.82Z" fill="#6C63FF"/>
            <path opacity="0.1" d="M485.147 492.82C484.227 493.007 483.271 492.997 482.356 492.792C481.441 492.586 480.592 492.191 479.877 491.638L480.635 509.255C480.635 509.255 482.419 510.993 485.147 510.596V492.82Z" fill="black"/>
            <path opacity="0.1" d="M485.567 490.835C485.567 490.835 492.877 488.823 494.783 489.106Z" fill="black"/>
            <path opacity="0.1" d="M477.39 489.956C477.39 489.956 470.304 488.445 469.121 488.874Z" fill="black"/>
            <path opacity="0.1" d="M490.176 491.086C490.176 491.086 495.064 489.473 496.831 490.24Z" fill="black"/>
            <path opacity="0.1" d="M487.714 531.556C488.471 531.044 489.278 530.593 490.123 530.209C491.383 529.663 493.691 528.246 493.691 528.246" fill="black"/>
            <path opacity="0.1" d="M469.121 512.278C469.121 512.278 466.054 514.535 465.133 514.734C464.212 514.932 463.643 516.692 463.643 516.692" fill="black"/>
            <path d="M501.314 517.609L500.336 520.008C500.336 520.008 498.867 521.141 497.257 520.575C495.648 520.008 494.25 519.726 493.549 519.175C492.848 518.623 491.87 515.852 491.87 515.852C491.87 515.852 490.892 512.829 489.911 512.074C488.931 511.318 486.344 500.907 489.911 501.926C493.479 502.944 496.208 512.389 496.208 512.389C496.208 512.389 496.838 513.081 497.746 513.145C498.655 513.209 500.475 513.018 500.825 513.712C501.176 514.405 502.364 516.23 501.314 517.609Z" fill="#BE6F72"/>
            <path opacity="0.1" d="M499.6 513.196C499.6 513.196 501.604 514.356 501.596 515.742Z" fill="black"/>
            <path d="M482.593 479.574C487.771 479.574 491.968 475.796 491.968 471.135C491.968 466.475 487.771 462.697 482.593 462.697C477.415 462.697 473.218 466.475 473.218 471.135C473.218 475.796 477.415 479.574 482.593 479.574Z" fill="#BE6F72"/>
            <path d="M476.706 468.87C477.843 468.71 478.84 468.115 479.927 467.773C482.36 467.004 485.051 467.531 487.513 468.224C488.457 468.491 489.416 468.791 490.407 468.791C491.397 468.791 492.449 468.427 492.955 467.658C493.421 466.951 493.33 466.033 492.938 465.291C492.545 464.548 491.889 463.951 491.225 463.388C489.043 461.533 486.335 459.799 483.34 459.988C482.135 460.065 480.983 460.453 479.875 460.882C478.48 461.423 477.121 462.038 475.807 462.725C474.798 463.252 472.928 463.957 472.347 464.92C471.024 467.091 474.649 469.161 476.706 468.87Z" fill="#3E373A"/>
            <path opacity="0.1" d="M492.955 466.864C492.449 467.633 491.397 467.998 490.407 467.998C489.416 467.998 488.457 467.709 487.51 467.442C485.049 466.749 482.36 466.22 479.925 466.991C478.84 467.333 477.841 467.935 476.704 468.086C475.046 468.321 472.376 467.021 472.086 465.368C471.761 467.278 474.857 468.914 476.704 468.653C477.841 468.493 478.84 467.898 479.925 467.558C482.36 466.787 485.049 467.316 487.51 468.009C488.457 468.275 489.414 468.576 490.407 468.564C491.4 468.553 492.449 468.202 492.955 467.431C493.217 467.012 493.32 466.527 493.249 466.05C493.216 466.337 493.116 466.615 492.955 466.864Z" fill="black"/>
            <path d="M571.348 571.109C571.348 571.625 571.283 572.043 571.205 572.043C571.127 572.043 571.06 571.625 571.06 571.109C571.06 570.594 571.14 570.837 571.219 570.837C571.299 570.837 571.348 570.594 571.348 571.109Z" fill="#FFD037"/>
            <path d="M560.148 571.109C560.148 571.625 560.211 572.043 560.291 572.043C560.371 572.043 560.436 571.625 560.436 571.109C560.436 570.594 560.354 570.837 560.276 570.837C560.198 570.837 560.148 570.594 560.148 571.109Z" fill="#FFD037"/>
        </g>
        <g clip-path="url(#clip2)">
            <path d="M470.437 258.103C470.437 258.103 468.404 243.579 465.016 247.54C461.627 251.501 465.016 257.443 465.016 257.443L467.727 260.743L470.437 258.763V258.103Z" fill="#9F616A"/>
            <path d="M478.569 262.724C478.569 262.724 471.793 255.462 470.437 256.782C469.082 258.103 465.016 258.763 465.694 261.404C466.371 264.044 480.602 272.626 480.602 272.626L478.569 262.724Z" fill="#6C63FF"/>
            <path opacity="0.1" d="M478.569 262.724C478.569 262.724 471.793 255.462 470.437 256.782C469.082 258.103 465.016 258.763 465.694 261.404C466.371 264.044 480.602 272.626 480.602 272.626L478.569 262.724Z" fill="black"/>
            <path d="M517.197 262.064V267.345C517.197 267.345 517.875 279.228 513.808 278.568C509.742 277.908 511.775 268.005 511.775 268.005L512.453 262.064L517.197 262.064Z" fill="#9F616A"/>
            <path d="M515.164 300.354C515.164 300.354 521.263 309.596 523.296 310.256C525.329 310.916 536.172 316.858 537.527 322.799L547.015 334.682L542.271 340.624C542.271 340.624 520.585 318.178 514.486 316.198C508.387 314.217 502.288 304.315 502.288 304.315L515.164 300.354Z" fill="#9F616A"/>
            <path d="M467.049 285.17C467.049 285.17 454.173 287.15 456.206 295.072C458.239 302.994 477.892 319.498 477.892 319.498L478.569 323.459L486.024 324.78L489.412 321.479L488.734 319.498C488.734 319.498 480.602 312.237 479.925 309.596C479.247 306.955 471.793 296.393 468.404 295.732L473.148 293.092L467.049 285.17Z" fill="#9F616A"/>
            <path d="M544.982 334.682C544.982 334.682 542.271 330.721 546.337 331.381C550.403 332.042 553.114 332.702 553.114 335.342C553.114 337.983 549.725 356.468 545.659 355.147C541.593 353.827 544.982 347.886 544.982 347.886C544.982 347.886 542.949 342.604 541.593 341.944C540.238 341.284 540.238 337.983 541.593 337.983C542.949 337.983 545.659 336.003 544.982 334.682Z" fill="#2F2E41"/>
            <path d="M487.379 320.159C487.379 320.159 487.379 316.858 490.09 320.159C492.801 323.459 494.156 326.1 491.445 328.081C488.734 330.061 479.247 334.682 479.247 334.682C479.247 334.682 469.082 336.663 470.437 332.042C470.437 332.042 477.214 328.741 477.214 326.1C477.214 323.459 477.214 318.838 479.247 320.159C481.28 321.479 487.379 322.139 487.379 320.159Z" fill="#2F2E41"/>
            <path d="M500.255 270.646C500.255 270.646 509.742 271.966 509.065 285.17C509.065 285.17 521.263 297.053 517.875 301.014C514.486 304.975 507.032 312.237 504.321 310.256C501.61 308.276 493.478 293.092 493.478 293.092C493.478 293.092 474.503 299.693 471.115 296.393C467.727 293.092 464.338 285.17 464.338 285.17L481.28 276.587L500.255 270.646Z" fill="#2F2E41"/>
            <path d="M473.826 233.016C478.317 233.016 481.958 229.47 481.958 225.094C481.958 220.719 478.317 217.172 473.826 217.172C469.334 217.172 465.694 220.719 465.694 225.094C465.694 229.47 469.334 233.016 473.826 233.016Z" fill="#9F616A"/>
            <path d="M479.925 225.755C479.925 225.755 484.668 233.016 486.024 233.677C487.379 234.337 476.536 240.938 476.536 240.938C476.536 240.938 476.536 232.356 473.148 230.376L479.925 225.755Z" fill="#9F616A"/>
            <path d="M480.602 233.016C480.602 233.016 491.445 229.716 493.478 234.997C495.511 240.278 500.255 250.181 499.577 256.782C498.9 263.384 497.544 262.064 499.577 264.044C501.61 266.025 502.966 264.704 502.288 267.345C501.61 269.986 500.933 269.986 501.61 271.306C502.288 272.626 493.478 277.248 486.024 277.908L478.569 278.568C478.569 278.568 478.569 266.685 477.214 264.044C475.859 261.404 473.148 256.122 473.148 254.142V248.902C473.148 245.414 474.082 241.986 475.859 238.958V238.958C475.859 238.958 479.925 233.016 480.602 233.016Z" fill="#6C63FF"/>
            <path d="M488.734 235.657C488.734 235.657 513.808 237.638 516.519 244.239C519.23 250.841 520.585 264.044 517.875 264.044C515.164 264.044 511.775 265.365 511.098 264.044C510.42 262.724 507.709 249.521 507.032 249.521C506.354 249.521 486.024 247.54 486.024 247.54C486.024 247.54 477.214 236.977 488.734 235.657Z" fill="#6C63FF"/>
            <path d="M473.499 223.13C473.499 223.13 471.341 219.477 468.643 222.65C465.946 225.824 461.558 219.992 462.231 218.748C462.905 217.504 465.284 218.804 469.361 217.505C473.438 216.207 481.291 213.562 482.606 222.19C483.922 230.818 480.789 229.913 480.789 229.913C480.789 229.913 479.353 222.268 478.055 224.464L476.758 226.66L475.632 226.93L473.499 223.13Z" fill="#2F2E41"/>
        </g>
        <path d="M109.571 307.053C138.072 307.053 161.177 287.415 161.177 263.191C161.177 238.966 138.072 219.328 109.571 219.328C81.0706 219.328 57.966 238.966 57.966 263.191C57.966 287.415 81.0706 307.053 109.571 307.053Z" fill="#3F3D56"/>
        <path d="M77.0826 266.712C78.3643 265.408 79.9672 264.359 81.7782 263.639C83.5892 262.919 85.564 262.546 87.5633 262.546C89.5625 262.546 91.5374 262.919 93.3483 263.639C95.1593 264.359 96.7622 265.408 98.0439 266.712C100.237 264.932 101.753 262.635 102.396 260.117C103.039 257.599 102.78 254.974 101.652 252.582C100.525 250.19 98.58 248.14 96.0688 246.696C93.5577 245.252 90.5952 244.48 87.5633 244.48C84.5313 244.48 81.5689 245.252 79.0577 246.696C76.5466 248.14 74.6018 250.19 73.4741 252.582C72.3464 254.974 72.0875 257.599 72.7306 260.117C73.3738 262.635 74.8896 264.932 77.0826 266.712V266.712Z" fill="white"/>
        <path d="M118.063 266.712C119.345 265.408 120.948 264.359 122.759 263.639C124.57 262.919 126.545 262.546 128.544 262.546C130.543 262.546 132.518 262.919 134.329 263.639C136.14 264.359 137.743 265.408 139.025 266.712C141.218 264.932 142.734 262.635 143.377 260.117C144.02 257.599 143.761 254.974 142.633 252.582C141.505 250.19 139.561 248.14 137.05 246.696C134.538 245.252 131.576 244.48 128.544 244.48C125.512 244.48 122.55 245.252 120.038 246.696C117.527 248.14 115.583 250.19 114.455 252.582C113.327 254.974 113.068 257.599 113.711 260.117C114.355 262.635 115.87 264.932 118.063 266.712Z" fill="white"/>
        <path d="M82.3856 257.425C85.2691 257.425 87.6067 255.438 87.6067 252.988C87.6067 250.537 85.2691 248.55 82.3856 248.55C79.502 248.55 77.1645 250.537 77.1645 252.988C77.1645 255.438 79.502 257.425 82.3856 257.425Z" fill="#3F3D56"/>
        <path d="M123.365 257.425C126.248 257.425 128.586 255.438 128.586 252.988C128.586 250.537 126.248 248.55 123.365 248.55C120.481 248.55 118.144 250.537 118.144 252.988C118.144 255.438 120.481 257.425 123.365 257.425Z" fill="#3F3D56"/>
        <path d="M72.3852 279.317C75.7382 279.317 78.4564 277.006 78.4564 274.156C78.4564 271.306 75.7382 268.996 72.3852 268.996C69.0321 268.996 66.314 271.306 66.314 274.156C66.314 277.006 69.0321 279.317 72.3852 279.317Z" fill="#FF6584"/>
        <path d="M142.204 279.317C145.557 279.317 148.276 277.006 148.276 274.156C148.276 271.306 145.557 268.996 142.204 268.996C138.851 268.996 136.133 271.306 136.133 274.156C136.133 277.006 138.851 279.317 142.204 279.317Z" fill="#FF6584"/>
        <path d="M107.295 263.836L102.741 280.607L110.33 274.156L107.295 263.836Z" fill="#FF6584"/>
        <path d="M130.691 328.339L125.522 324.652L125.642 328.339H124.037L123.908 324.44L116.929 328.339H114.007L123.856 322.837L123.475 311.282L123.19 302.556L124.791 302.518L125.08 311.282L125.462 322.826L133.188 328.339H130.691Z" fill="#3F3D56"/>
        <path d="M106.405 328.339L101.235 324.652L101.355 328.339H99.7542L99.6256 324.44L92.6458 328.339H89.7238L99.5694 322.837L99.1882 311.282L98.9032 302.556L100.509 302.518L100.798 311.282L101.175 322.826L108.901 328.339H106.405Z" fill="#3F3D56"/>
        <path d="M110.33 216.103C108.914 216.103 107.665 217.038 106.83 218.474C106.094 216.315 104.547 214.813 102.741 214.813C102.619 214.824 102.497 214.841 102.377 214.865C101.683 212.56 100.069 210.943 98.1879 210.943C95.6731 210.943 93.6345 213.831 93.6345 217.393C93.6345 220.956 95.6731 223.844 98.1879 223.844C98.3106 223.833 98.4324 223.816 98.5524 223.792C99.2467 226.097 100.86 227.714 102.741 227.714C104.157 227.714 105.406 226.779 106.242 225.343C106.978 227.502 108.524 229.004 110.33 229.004C112.845 229.004 114.884 226.116 114.884 222.554C114.884 218.991 112.845 216.103 110.33 216.103Z" fill="#3F3D56"/>
        <path d="M61.1331 279.813C59.1399 279.813 57.1662 279.479 55.3247 278.831C53.4832 278.182 51.81 277.232 50.4006 276.034C48.9912 274.836 47.8732 273.414 47.1104 271.849C46.3477 270.284 45.9551 268.606 45.9551 266.912V260.462C45.9551 257.04 47.5542 253.759 50.4006 251.34C53.247 248.92 57.1076 247.561 61.1331 247.561V247.561L61.1331 279.813Z" fill="#6C63FF"/>
        <path d="M158.01 247.561C160.003 247.561 161.977 247.895 163.818 248.543C165.66 249.191 167.333 250.142 168.742 251.339C170.152 252.537 171.27 253.96 172.032 255.525C172.795 257.09 173.188 258.768 173.188 260.462V266.912C173.188 268.606 172.795 270.284 172.032 271.849C171.27 273.414 170.152 274.836 168.742 276.034C167.333 277.232 165.66 278.182 163.818 278.831C161.977 279.479 160.003 279.813 158.01 279.813V279.813V247.561H158.01Z" fill="#6C63FF"/>
        <path d="M165.963 261.475H163.555C163.555 235.517 138.708 214.398 108.167 214.398C77.6255 214.398 52.7783 235.517 52.7783 261.475H50.3701C50.3701 234.388 76.2975 212.351 108.167 212.351C140.036 212.351 165.963 234.388 165.963 261.475Z" fill="#6C63FF"/>
        <path d="M25.5237 222.025L25.5241 222.024L24.3928 221.624L19.6191 219.909L17.908 219.294L17.7767 219.576L15.4782 224.508L21.947 226.835L21.9809 226.862L21.545 227.735C21.4853 227.815 21.4344 227.9 21.3929 227.987C21.0876 228.643 21.6643 229.295 22.2095 229.478C22.7547 229.662 23.4443 229.279 23.7496 228.624C24.0508 227.977 23.7565 227.156 23.2251 226.958L23.2256 226.957L22.0942 226.557L18.2239 225.278L20.4353 220.532L20.1076 220.422L17.8954 225.169L17.4168 225.011L19.6376 220.245L19.6962 220.266L24.2455 221.903L24.2794 221.929L23.8436 222.802C23.7839 222.882 23.733 222.967 23.6915 223.055C23.3861 223.71 23.9628 224.362 24.508 224.545C25.0532 224.729 25.7428 224.346 26.0481 223.691C26.3493 223.045 26.055 222.223 25.5237 222.025Z" fill="#3F3D56"/>
        <path d="M47.9132 234.135C45.565 232.994 46.0349 230.49 46.0349 230.49C45.9758 228.863 44.3945 229.093 44.3945 229.093L43.819 229.205C43.5516 229.099 43.2572 229.053 42.9632 229.07L42.0877 229.196C44.0812 229.594 43.9174 231.011 43.9174 231.011L44.1967 232.668L38.9731 230.877L39.5729 229.675C39.6558 229.564 39.7265 229.447 39.7841 229.325C40.2082 228.415 39.4072 227.51 38.65 227.255C37.8927 227 36.9351 227.531 36.5109 228.441C36.0926 229.339 36.5014 230.48 37.2394 230.755L37.2387 230.756L38.8101 231.312L38.8218 231.281L47.9132 234.135ZM45.2606 231.223L45.4281 232.809C44.8367 232.104 44.5588 231.243 44.644 230.38C44.6301 230.073 44.5083 229.777 44.2942 229.529C44.6233 229.708 44.8878 229.961 45.0583 230.26C45.2289 230.559 45.2989 230.892 45.2606 231.223V231.223Z" fill="#3F3D56"/>
        <path d="M8.06766 210.674L8.06828 210.673L6.49692 210.117L-0.0704674 207.947L1.58709 206.693C1.91135 206.326 2.39021 206.079 2.9235 206.005C3.45678 205.931 4.00319 206.035 4.44844 206.295L3.93407 205.645C3.93407 205.645 2.96708 204.557 1.61347 205.708C1.61347 205.708 -0.0613432 207.807 -2.69208 207.272L6.29241 210.504L6.33956 210.541L5.73414 211.754C5.65124 211.865 5.58052 211.982 5.52288 212.104C5.09878 213.014 5.8998 213.92 6.65703 214.174C7.41427 214.429 8.37196 213.898 8.7961 212.988C9.21441 212.09 8.80557 210.95 8.06766 210.674Z" fill="#3F3D56"/>
        <path d="M32.111 203.572L31.5055 204.786C31.4227 204.897 31.352 205.014 31.2943 205.136C30.8702 206.046 31.6712 206.951 32.4284 207.206C33.1857 207.461 34.1434 206.93 34.5675 206.02C34.9858 205.122 34.577 203.981 33.8391 203.706L33.8397 203.705L32.2684 203.149L26.8929 201.372L29.9643 194.781L29.5091 194.628L26.4365 201.222L25.7719 201.002L28.8563 194.382L28.9376 194.412L35.2562 196.685L35.3034 196.721L34.6979 197.934C34.6151 198.045 34.5444 198.163 34.4867 198.285C34.0626 199.195 34.8636 200.1 35.6208 200.355C36.3781 200.61 37.3358 200.079 37.7599 199.169C38.1783 198.271 37.7694 197.13 37.0315 196.855L37.0321 196.854L35.4608 196.297L29.0392 193.99L29.0389 193.99L28.8307 193.915L26.4541 193.061L23.0793 200.304L32.0638 203.536L32.111 203.572Z" fill="#3F3D56"/>
        <path d="M3.63895 166.48L3.64004 166.478L0.935036 165.521L-10.3703 161.786L-7.51698 159.628C-7.51698 159.628 -5.61898 157.39 -2.59133 158.942L-3.47673 157.823C-3.47673 157.823 -5.14142 155.95 -7.47153 157.932C-7.47153 157.932 -10.3546 161.545 -14.8833 160.624L0.582943 166.188L0.664132 166.25L-0.378068 168.339C-0.520745 168.53 -0.642473 168.732 -0.741719 168.942C-1.4718 170.509 -0.0929074 172.067 1.21063 172.506C2.51416 172.945 4.1628 172.03 4.89292 170.464C5.61301 168.918 4.90922 166.955 3.63895 166.48Z" fill="#3F3D56"/>
        <path d="M11.9403 197.858C6.3259 195.13 7.4494 189.142 7.4494 189.142C7.30815 185.253 3.52726 185.803 3.52726 185.803L2.15123 186.07C1.51201 185.818 0.808139 185.707 0.105094 185.748L-1.98811 186.048C2.77821 187 2.38662 190.389 2.38662 190.389L3.05437 194.351L-9.43469 190.069L-8.00075 187.195C-7.80257 186.93 -7.6335 186.65 -7.49565 186.358C-6.48162 184.182 -8.39679 182.017 -10.2073 181.408C-12.0178 180.798 -14.3076 182.068 -15.3216 184.244C-16.3218 186.391 -15.3443 189.118 -13.58 189.777L-13.5815 189.779L-9.82451 191.109L-9.79654 191.034L11.9403 197.858ZM5.59818 190.895L6.00006 194.701C3.642 192.041 4.12397 188.88 4.12397 188.88C4.09073 188.146 3.79939 187.437 3.28754 186.845C5.99629 188.223 5.59816 190.895 5.59816 190.895H5.59818Z" fill="#3F3D56"/>
        <g clip-path="url(#clip3)">
            <path d="M253.478 123.361C253.478 123.361 241.216 119.734 243.098 125.702C244.98 131.67 255.308 128.655 255.308 128.655L253.478 123.361Z" fill="#FFB8B8"/>
            <path d="M300.35 100.961C300.35 100.961 294.066 92.8051 287.96 101.271C281.843 109.754 276.156 116.719 276.156 116.719L260.963 121.423L252.173 122.164L254.595 129.585L280.151 126.064C280.151 126.064 308.603 110.013 300.35 100.961Z" fill="#2F2E41"/>
            <path d="M272.301 146.125C272.301 146.125 262.755 152.471 263.392 158.213C264.028 163.955 268.165 179.669 268.165 179.669L276.756 178.46C276.756 178.46 277.711 166.372 274.529 161.839L289.802 153.68L272.301 146.125Z" fill="#FFB8B8"/>
            <path d="M293.462 161.084C293.462 161.084 292.825 172.265 294.416 176.798C296.007 181.331 297.598 198.255 297.598 198.255H306.508C306.508 198.255 310.645 183.447 305.553 176.798C305.553 176.798 303.962 168.035 308.417 163.804L293.462 161.084Z" fill="#FFB8B8"/>
            <path d="M291.393 130.108C291.393 130.108 270.71 142.499 270.71 146.427L287.257 159.422L292.984 153.378L292.348 162.444L310.167 165.768C310.167 165.768 316.532 142.801 316.213 141.894C315.895 140.988 314.94 127.691 314.94 127.691L291.393 130.108Z" fill="#2F2E41"/>
            <path d="M276.756 176.949L267.528 178.763L269.168 185.164C269.975 188.315 270.067 191.592 269.437 194.779V194.779C269.437 194.779 278.984 197.197 278.984 195.988C278.984 194.779 276.756 189.944 277.393 186.62C278.029 183.296 276.756 176.949 276.756 176.949Z" fill="#6C63FF"/>
            <path d="M281.529 199.615C281.211 198.406 278.567 192.925 278.457 193.852C278.347 194.779 273.256 196.29 271.347 194.477C271.347 194.477 268.801 192.362 267.846 194.477C266.892 196.593 264.983 200.219 264.983 200.219C264.983 200.219 256.391 204.148 257.664 206.263C257.921 206.691 258.635 206.871 259.608 206.887C259.585 206.943 259.574 207.002 259.573 207.062V207.277C259.573 207.409 259.628 207.535 259.727 207.628C259.825 207.722 259.958 207.774 260.097 207.774H260.322C260.461 207.774 260.594 207.722 260.693 207.628C260.791 207.535 260.846 207.409 260.846 207.277V207.062C260.845 206.985 260.826 206.909 260.789 206.841C261.049 206.819 261.319 206.791 261.597 206.756C261.523 206.843 261.483 206.951 261.482 207.062V207.277C261.482 207.409 261.538 207.535 261.636 207.628C261.734 207.722 261.867 207.774 262.006 207.774H262.232C262.37 207.774 262.504 207.722 262.602 207.628C262.7 207.535 262.755 207.409 262.755 207.277V207.062C262.755 206.974 262.73 206.887 262.682 206.811C262.634 206.735 262.566 206.672 262.484 206.63C263.217 206.513 263.981 206.366 264.741 206.202C264.691 206.279 264.665 206.368 264.664 206.458V206.672C264.664 206.804 264.72 206.931 264.818 207.024C264.916 207.117 265.049 207.17 265.188 207.17H265.414C265.552 207.17 265.686 207.117 265.784 207.024C265.882 206.931 265.937 206.804 265.937 206.672V206.458C265.937 206.362 265.908 206.268 265.852 206.187C265.797 206.107 265.718 206.043 265.626 206.004C266.196 205.872 266.755 205.735 267.287 205.598C267.237 205.675 267.21 205.763 267.21 205.854V206.068C267.21 206.2 267.265 206.326 267.363 206.419C267.462 206.513 267.595 206.565 267.734 206.565H267.959C268.098 206.565 268.231 206.513 268.329 206.419C268.428 206.326 268.483 206.2 268.483 206.068V205.854C268.483 205.748 268.447 205.645 268.38 205.56C268.314 205.475 268.221 205.412 268.115 205.381C269.983 204.881 271.347 204.45 271.347 204.45C271.347 204.45 272.93 203.903 274.847 203.163V203.348C274.847 203.48 274.902 203.606 275 203.7C275.098 203.793 275.232 203.845 275.371 203.845H275.596C275.735 203.845 275.868 203.793 275.966 203.7C276.065 203.606 276.12 203.48 276.12 203.348V203.134C276.119 203.058 276.101 202.984 276.066 202.916C276.031 202.849 275.98 202.79 275.917 202.744C276.302 202.59 276.69 202.432 277.074 202.271V202.441C277.074 202.573 277.129 202.7 277.228 202.793C277.326 202.886 277.459 202.939 277.598 202.939H277.823C277.962 202.939 278.096 202.886 278.194 202.793C278.292 202.7 278.347 202.573 278.347 202.441V202.227C278.347 202.147 278.327 202.068 278.288 201.998C278.249 201.927 278.192 201.866 278.123 201.82C278.538 201.636 278.938 201.452 279.307 201.272C279.305 201.289 279.302 201.304 279.302 201.321V201.535C279.302 201.667 279.357 201.793 279.455 201.886C279.553 201.98 279.686 202.032 279.825 202.032H280.051C280.19 202.032 280.323 201.98 280.421 201.886C280.519 201.793 280.575 201.667 280.575 201.535V201.321C280.575 201.206 280.533 201.095 280.456 201.006C280.38 200.917 280.274 200.856 280.155 200.833C281.045 200.343 281.606 199.907 281.529 199.615Z" fill="#2F2E41"/>
            <path d="M307.145 196.895L297.064 196.29C297.064 196.29 297.675 206.263 296.453 209.587C295.231 212.911 295.842 214.12 295.842 214.12L304.701 214.725L307.145 196.895Z" fill="#6C63FF"/>
            <path d="M307.269 218.936C307.223 217.69 305.84 211.807 305.529 212.692C305.218 213.577 299.907 214.046 298.438 211.895C298.438 211.895 296.412 209.322 295.014 211.202C293.616 213.082 290.953 216.25 290.953 216.25C290.953 216.25 281.688 218.391 282.468 220.712C282.626 221.182 283.284 221.499 284.233 221.708C284.198 221.758 284.173 221.814 284.16 221.872L284.113 222.082C284.084 222.211 284.11 222.345 284.186 222.456C284.261 222.567 284.38 222.644 284.516 222.672L284.736 222.716C284.872 222.744 285.014 222.719 285.13 222.647C285.247 222.575 285.329 222.463 285.358 222.334L285.405 222.124C285.421 222.049 285.419 221.971 285.397 221.896C285.657 221.926 285.927 221.952 286.206 221.973C286.115 222.043 286.052 222.141 286.027 222.25L285.98 222.46C285.951 222.589 285.977 222.723 286.053 222.834C286.129 222.945 286.247 223.022 286.383 223.05L286.604 223.094C286.739 223.122 286.881 223.097 286.998 223.025C287.114 222.953 287.196 222.841 287.225 222.712L287.272 222.502C287.291 222.416 287.286 222.326 287.256 222.242C287.226 222.158 287.173 222.083 287.102 222.025C287.844 222.057 288.624 222.064 289.403 222.054C289.338 222.119 289.292 222.201 289.272 222.289L289.225 222.499C289.196 222.628 289.222 222.762 289.298 222.873C289.373 222.984 289.492 223.061 289.628 223.089L289.848 223.133C289.984 223.161 290.126 223.136 290.243 223.064C290.359 222.992 290.441 222.88 290.47 222.751L290.517 222.541C290.538 222.447 290.53 222.349 290.493 222.26C290.457 222.17 290.394 222.092 290.312 222.036C290.898 222.02 291.475 221.996 292.025 221.967C291.96 222.033 291.914 222.114 291.894 222.202L291.847 222.412C291.818 222.541 291.844 222.675 291.92 222.786C291.996 222.897 292.114 222.974 292.25 223.002L292.471 223.046C292.607 223.074 292.748 223.049 292.865 222.977C292.981 222.905 293.063 222.793 293.092 222.664L293.139 222.454C293.162 222.351 293.15 222.243 293.103 222.147C293.057 222.05 292.98 221.971 292.883 221.919C294.82 221.8 296.248 221.648 296.248 221.648C296.248 221.648 297.917 221.427 299.954 221.083L299.913 221.264C299.884 221.393 299.911 221.527 299.986 221.638C300.062 221.749 300.181 221.826 300.316 221.854L300.537 221.899C300.673 221.926 300.814 221.901 300.931 221.829C301.048 221.758 301.129 221.645 301.158 221.516L301.205 221.306C301.222 221.233 301.22 221.156 301.2 221.083C301.181 221.01 301.144 220.942 301.093 220.885C301.503 220.811 301.917 220.733 302.328 220.652L302.291 220.818C302.262 220.947 302.288 221.082 302.364 221.193C302.439 221.303 302.558 221.381 302.694 221.408L302.914 221.453C303.05 221.48 303.192 221.456 303.309 221.384C303.425 221.312 303.507 221.199 303.536 221.07L303.583 220.861C303.6 220.783 303.598 220.701 303.575 220.624C303.552 220.547 303.511 220.477 303.453 220.418C303.899 220.321 304.331 220.22 304.731 220.117C304.726 220.132 304.719 220.147 304.715 220.163L304.668 220.373C304.639 220.502 304.666 220.636 304.741 220.747C304.817 220.858 304.936 220.935 305.071 220.963L305.292 221.007C305.428 221.035 305.57 221.01 305.686 220.938C305.803 220.866 305.884 220.754 305.913 220.625L305.96 220.415C305.985 220.303 305.969 220.186 305.914 220.084C305.859 219.982 305.768 219.901 305.657 219.856C306.635 219.552 307.28 219.237 307.269 218.936Z" fill="#2F2E41"/>
            <path d="M291.393 90.8222C296.49 90.8222 300.621 86.8985 300.621 82.0583C300.621 77.2182 296.49 73.2945 291.393 73.2945C286.297 73.2945 282.166 77.2182 282.166 82.0583C282.166 86.8985 286.297 90.8222 291.393 90.8222Z" fill="#FFB8B8"/>
            <path d="M299.667 81.1517C299.667 81.1517 304.758 87.1957 307.304 86.8935L296.167 95.0529C296.167 95.0529 294.894 89.9155 293.303 89.3111C291.712 88.7067 299.667 81.1517 299.667 81.1517Z" fill="#FFB8B8"/>
            <path d="M319.554 126.029C319.554 126.029 319.554 92.6818 313.663 89.8092C307.777 86.9383 303.883 85.2997 303.883 85.2997C303.796 86.3939 303.469 87.4587 302.922 88.4252C302.375 89.3917 301.62 90.2384 300.707 90.9107C298.755 92.3419 296.811 93.5286 295.724 93.5324L295.689 93.3909L295.557 93.0316L292.348 97.7728C292.348 97.7728 289.484 98.3772 288.53 100.19C288.013 101.171 290.449 111.046 289.007 119.985C287.784 127.568 282.63 134.413 282.484 135.246C282.237 136.653 288.501 132.967 291.322 131.243C291.364 131.288 291.393 131.317 291.393 131.317C291.393 131.317 289.802 131.921 292.984 131.015C294.787 130.501 297.305 130.473 299.149 130.544C299.146 131.069 299.16 131.487 299.189 131.77C299.508 134.792 315.418 139.023 317.645 138.117C319.873 137.21 319.554 126.029 319.554 126.029Z" fill="#2F2E41"/>
            <path d="M308.417 137.512C308.417 137.512 298.871 145.672 305.235 147.183C311.599 148.694 314.145 138.721 314.145 138.721L308.417 137.512Z" fill="#FFB8B8"/>
            <path d="M297.28 158.666C297.28 158.666 301.735 154.738 304.281 156.853C306.826 158.969 308.417 160.48 308.417 160.48C308.417 160.48 301.099 156.249 297.28 158.666Z" fill="#6C63FF"/>
            <path d="M298.437 205.673C298.437 205.673 300.948 203.459 302.383 204.651C303.818 205.844 304.715 206.695 304.715 206.695C304.715 206.695 300.59 204.311 298.437 205.673Z" fill="#2F2E41"/>
            <path d="M270.307 185.077C270.307 185.077 272.031 182.264 273.769 183.008C275.507 183.753 276.626 184.32 276.626 184.32C276.626 184.32 271.949 183.178 270.307 185.077Z" fill="#2F2E41"/>
            <path d="M317.15 93.9556C313.996 87.934 304.398 91.2181 305.958 97.7787C305.981 97.8765 306.005 97.9752 306.031 98.075C307.674 104.285 310.361 110.204 313.986 115.603L310.486 130.41L306.667 137.966L314.622 139.779L324.487 117.114C324.487 117.114 321.766 102.767 317.15 93.9556Z" fill="#2F2E41"/>
            <path opacity="0.2" d="M312.554 116.056L306.508 137.814L311.599 127.539L312.554 116.056Z" fill="black"/>
            <path d="M297.189 71.8427C297.189 71.8427 292.088 66.7426 286.954 69.9545C281.819 73.1663 279.384 76.2863 279.887 78.4587C280.391 80.6311 281.88 83.6528 281.88 83.6528C281.88 83.6528 280.955 79.1522 285.206 78.8192C289.457 78.4861 295.331 75.8142 295.331 75.8142L299.304 83.872C299.304 83.872 299.865 82.0047 301.423 82.5403C302.98 83.0759 301.773 72.4401 297.189 71.8427Z" fill="#2F2E41"/>
            <path d="M264.505 187.073C264.505 187.839 264.438 188.603 264.305 189.358V189.361C263.939 191.392 263.093 193.317 261.829 194.992C260.566 196.667 258.918 198.047 257.011 199.029C255.104 200.011 252.986 200.568 250.819 200.659C248.652 200.75 246.491 200.372 244.5 199.554H244.497C243.908 199.313 243.337 199.033 242.788 198.717C241.087 197.742 239.619 196.442 238.475 194.9C237.331 193.357 236.538 191.606 236.144 189.757C235.959 188.873 235.867 187.974 235.867 187.073C235.867 186.662 235.886 186.254 235.924 185.852V185.849C236.254 182.379 237.975 179.162 240.73 176.861C243.485 174.56 247.065 173.351 250.731 173.484C254.397 173.617 257.87 175.082 260.432 177.575C262.995 180.069 264.452 183.402 264.502 186.886V186.889C264.505 186.952 264.505 187.01 264.505 187.073Z" fill="#6C63FF"/>
            <path d="M253.711 182.531H247.298L244.091 177.258L246.266 173.677L246.393 173.645C249.147 172.946 252.055 173.023 254.763 173.867L254.878 173.903L256.918 177.258L253.711 182.531ZM247.665 181.927H253.344L256.183 177.258L254.449 174.406C251.932 173.648 249.243 173.575 246.685 174.197L244.826 177.258L247.665 181.927Z" fill="white"/>
            <path d="M253.393 193.411H246.98L243.773 188.136L246.98 182.861H253.393L256.6 188.136L253.393 193.411ZM247.347 192.806H253.025L255.865 188.136L253.025 183.466H247.347L244.508 188.136L247.347 192.806Z" fill="white"/>
            <path d="M250.186 200.974C248.186 200.978 246.207 200.589 244.373 199.831L244.046 199.696L247.298 194.344H253.711L256.826 199.468L256.516 199.609C254.542 200.513 252.378 200.979 250.186 200.974V200.974ZM244.956 199.408C246.705 200.076 248.579 200.403 250.465 200.367C252.35 200.332 254.209 199.936 255.929 199.202L253.344 194.948H247.665L244.956 199.408Z" fill="white"/>
            <path d="M264.212 187.971H257.799L254.592 182.697L257.798 177.421H260.719L260.813 177.515C263.345 180.045 264.777 183.391 264.82 186.882V186.97L264.212 187.971ZM258.166 187.366H263.844L264.183 186.81C264.121 183.544 262.79 180.415 260.444 178.025H258.166L255.327 182.697L258.166 187.366Z" fill="white"/>
            <path d="M257.71 199.005L254.592 193.879L257.798 188.602H264.211L264.623 189.276L264.619 189.411C264.271 191.336 263.501 193.17 262.359 194.793C261.217 196.417 259.729 197.795 257.99 198.837L257.71 199.005ZM255.327 193.879L257.928 198.154C259.504 197.16 260.852 195.873 261.89 194.371C262.929 192.869 263.637 191.183 263.972 189.415L263.845 189.207H258.166L255.327 193.879Z" fill="white"/>
            <path d="M242.901 199.135L242.623 198.976C240.886 197.978 239.385 196.649 238.216 195.072C237.047 193.496 236.235 191.706 235.832 189.816L235.808 189.704L236.479 188.602H242.892L246.099 193.879L242.901 199.135ZM236.48 189.808C236.866 191.543 237.614 193.188 238.678 194.645C239.742 196.103 241.101 197.344 242.677 198.296L245.364 193.879L242.525 189.207H236.846L236.48 189.808Z" fill="white"/>
            <path d="M242.892 187.366H236.479L235.606 185.933V185.852C235.92 182.428 237.563 179.236 240.217 176.897L240.308 176.816H242.892L246.099 182.093L242.892 187.366ZM236.846 186.762H242.525L245.364 182.093L242.525 177.421H240.559C238.104 179.621 236.573 182.593 236.25 185.784L236.846 186.762Z" fill="white"/>
        </g>
    </g>
    <defs>
        <linearGradient id="paint0_linear" x1="222.377" y1="605.106" x2="222.377" y2="366.835" gradientUnits="userSpaceOnUse">
            <stop stop-color="#808080" stop-opacity="0.25"/>
            <stop offset="0.54" stop-color="#808080" stop-opacity="0.12"/>
            <stop offset="1" stop-color="#808080" stop-opacity="0.1"/>
        </linearGradient>
        <linearGradient id="paint1_linear" x1="484.503" y1="547.275" x2="484.503" y2="452.458" gradientUnits="userSpaceOnUse">
            <stop stop-color="#808080" stop-opacity="0.25"/>
            <stop offset="0.54" stop-color="#808080" stop-opacity="0.12"/>
            <stop offset="1" stop-color="#808080" stop-opacity="0.1"/>
        </linearGradient>
        <clipPath id="clip0">
            <rect width="681" height="634" fill="white"/>
        </clipPath>
        <clipPath id="clip1">
            <rect width="214.674" height="153.612" fill="white" transform="translate(369.774 452.458)"/>
        </clipPath>
        <clipPath id="clip2">
            <rect width="288.629" height="182.473" fill="white" transform="translate(306.776 172.742)"/>
        </clipPath>
        <clipPath id="clip3">
            <rect width="272.692" height="154.252" fill="white" transform="translate(163.317 68.8928)"/>
        </clipPath>
    </defs>
</svg>
