<svg width="896" height="373" viewBox="0 0 896 373" fill="none" xmlns="http://www.w3.org/2000/svg">
    <path d="M85.3597 240.25L160.5 94.457L235.64 240.25H85.3597Z" fill="#1E7200" stroke="black" stroke-width="5"/>
    <line x1="162.5" y1="156.018" x2="161.5" y2="294.018" stroke="black" stroke-width="5"/>
    <line x1="162.773" y1="199.136" x2="137.773" y2="150.136" stroke="black" stroke-width="5"/>
    <line x1="163.369" y1="201.106" x2="199.369" y2="170.106" stroke="black" stroke-width="5"/>
    <line x1="163.563" y1="227.046" x2="116.563" y2="194.046" stroke="black" stroke-width="5"/>
    <path d="M160.33 227.579L197.599 203" stroke="black" stroke-width="5"/>
    <line x1="68.9896" y1="291.5" x2="562.989" y2="289.446" stroke="black" stroke-width="5"/>
    <path d="M306.905 291.25L376.5 102.235L446.095 291.25H306.905Z" fill="#0CA7C9" stroke="black" stroke-width="5"/>
    <path d="M342.112 288.5L377.5 206.775L412.888 288.5H342.112Z" fill="#C51111" stroke="black" stroke-width="3"/>
    <path d="M376.5 107.985L377.5 205.985" stroke="black" stroke-width="3"/>
    <line x1="325.761" y1="240.707" x2="342.761" y2="250.707" stroke="black" stroke-width="3"/>
    <line x1="325.761" y1="240.707" x2="342.761" y2="250.707" stroke="black" stroke-width="3"/>
    <line x1="325.761" y1="240.707" x2="342.761" y2="250.707" stroke="black" stroke-width="3"/>
    <line x1="317.761" y1="250.707" x2="334.761" y2="260.707" stroke="black" stroke-width="3"/>
    <path d="M450 292L376.986 100M369 79L376.986 100M376.986 100L307 292L387 79" stroke="black" stroke-width="5"/>
    <path d="M547.834 20.4138C548.827 20.4138 549.631 19.6369 549.631 18.677V1.7368C549.631 0.776827 548.827 0 547.834 0C546.84 0 546.037 0.776827 546.037 1.7368V18.677C546.037 19.6369 546.84 20.4138 547.834 20.4138Z" fill="black"/>
    <path d="M576.408 8.08012C575.545 7.59501 574.446 7.88153 573.953 8.71265L565.178 23.3818C564.679 24.2129 564.974 25.2747 565.832 25.7546C566.116 25.914 566.425 25.9888 566.731 25.9888C567.352 25.9888 567.955 25.6783 568.287 25.1221L577.063 10.4527C577.561 9.6218 577.266 8.56002 576.408 8.08012Z" fill="black"/>
    <path d="M580.212 39.9404C580.516 39.9404 580.825 39.8658 581.109 39.708L596.307 31.238C597.165 30.7597 597.462 29.6963 596.965 28.8652C596.469 28.0376 595.377 27.7491 594.51 28.2292L579.312 36.6992C578.454 37.1775 578.158 38.2411 578.654 39.072C578.986 39.6284 579.591 39.9404 580.212 39.9404Z" fill="black"/>
    <path d="M510.145 56.7872C510.145 55.8274 509.341 55.0506 508.348 55.0506H490.797C489.804 55.0506 489 55.8274 489 56.7872C489 57.7472 489.804 58.5241 490.797 58.5241H508.348C509.341 58.5241 510.145 57.7472 510.145 56.7872Z" fill="black"/>
    <path d="M496.695 31.238L511.893 39.708C512.177 39.8658 512.484 39.9404 512.789 39.9404C513.41 39.9404 514.016 39.6284 514.347 39.072C514.844 38.2411 514.548 37.1775 513.689 36.6992L498.491 28.2292C497.626 27.7491 496.53 28.0341 496.037 28.8652C495.54 29.6963 495.837 30.7597 496.695 31.238Z" fill="black"/>
    <path d="M526.269 25.9887C526.575 25.9887 526.884 25.914 527.166 25.7563C528.026 25.2747 528.321 24.2129 527.824 23.3835L519.05 8.71436C518.552 7.88151 517.452 7.59673 516.595 8.07836C515.736 8.56 515.441 9.62178 515.937 10.4512L524.711 25.1203C525.045 25.6783 525.648 25.9887 526.269 25.9887Z" fill="black"/>
    <path d="M547.834 90.5897C546.84 90.5897 546.037 91.3665 546.037 92.3265V109.263C546.037 110.223 546.84 111 547.834 111C548.827 111 549.631 110.223 549.631 109.263V92.3265C549.631 91.3665 548.827 90.5897 547.834 90.5897Z" fill="black"/>
    <path d="M529.479 86.5344C528.614 86.0495 527.519 86.336 527.024 87.1671L518.248 101.836C517.75 102.667 518.045 103.729 518.903 104.209C519.187 104.368 519.496 104.443 519.801 104.443C520.423 104.443 521.026 104.133 521.358 103.576L530.133 88.9072C530.632 88.0761 530.337 87.0145 529.479 86.5344Z" fill="black"/>
    <path d="M513.226 73.524L498.028 81.9941C497.17 82.4723 496.874 83.5358 497.37 84.3669C497.702 84.9232 498.307 85.2353 498.928 85.2353C499.232 85.2353 499.541 85.1606 499.825 85.0029L515.023 76.5328C515.881 76.0546 516.178 74.9911 515.681 74.16C515.186 73.3306 514.091 73.0423 513.226 73.524Z" fill="black"/>
    <path d="M602.203 55.0506H584.656C583.662 55.0506 582.859 55.8274 582.859 56.7872C582.859 57.7472 583.662 58.5241 584.656 58.5241H602.203C603.196 58.5241 604 57.7472 604 56.7872C604 55.8274 603.196 55.0506 602.203 55.0506Z" fill="black"/>
    <path d="M594.972 81.9941L579.774 73.524C578.91 73.0441 577.812 73.3306 577.319 74.16C576.822 74.9911 577.119 76.0546 577.977 76.5328L593.175 85.0029C593.459 85.1606 593.766 85.2353 594.072 85.2353C594.693 85.2353 595.298 84.9231 595.63 84.3669C596.126 83.5358 595.83 82.4723 594.972 81.9941Z" fill="black"/>
    <path d="M565.974 87.1671C565.479 86.336 564.381 86.0495 563.519 86.5344C562.661 87.0145 562.367 88.0761 562.865 88.9072L571.64 103.576C571.972 104.133 572.576 104.443 573.197 104.443C573.502 104.443 573.811 104.368 574.095 104.209C574.953 103.729 575.248 102.667 574.75 101.836L565.974 87.1671Z" fill="black"/>
    <path d="M570.5 55.5C570.5 68.783 559.951 79.5 547 79.5C534.049 79.5 523.5 68.783 523.5 55.5C523.5 42.217 534.049 31.5 547 31.5C559.951 31.5 570.5 42.217 570.5 55.5Z" fill="#F4EC1A" stroke="black" stroke-width="3"/>
    <path d="M46.25 351.031C46.25 353.344 46.3594 355.859 46.5781 358.578C46.7969 361.266 46.9062 363.641 46.9062 365.703C46.9062 366.922 46.6562 367.984 46.1562 368.891C45.6875 369.766 44.8281 370.203 43.5781 370.203C42.7344 370.203 42.0469 369.875 41.5156 369.219C40.9844 368.562 40.6875 367.812 40.625 366.969C40.5625 366.156 40.5 365.203 40.4375 364.109C40.375 363.016 40.3125 361.797 40.25 360.453C35.9062 367.328 30.3594 370.766 23.6094 370.766C19.0781 370.766 15.0625 369.766 11.5625 367.766C8.09375 365.766 5.35938 363 3.35938 359.469C1.39062 355.906 0.40625 351.812 0.40625 347.188C0.40625 343.688 1 340.281 2.1875 336.969C3.375 333.625 4.98438 330.734 7.01562 328.297C10.3281 324.297 14.5938 322.297 19.8125 322.297C20.375 322.297 20.9531 322.312 21.5469 322.344C27.5469 322.812 33.6562 326.297 39.875 332.797C39.875 330.859 39.875 328.594 39.875 326C39.875 323.375 39.8906 320.438 39.9219 317.188L40.0156 305.75C40.0156 304.781 40.3281 304.047 40.9531 303.547C41.6094 303.047 42.3125 302.797 43.0625 302.797C43.8438 302.797 44.5469 303.047 45.1719 303.547C45.7969 304.047 46.1094 304.797 46.1094 305.797L46.0156 317.281C45.9844 321.5 45.9531 325.344 45.9219 328.812C45.9219 332.25 45.9219 335.312 45.9219 338C45.9219 341.406 45.9375 344.125 45.9688 346.156C46.1562 346.719 46.25 347.703 46.25 349.109C46.25 349.422 46.25 349.734 46.25 350.047C46.25 350.359 46.25 350.688 46.25 351.031ZM23.6562 364.672C30.0625 364.672 35.125 359.562 38.8438 349.344C39.0938 348.688 39.2969 348.125 39.4531 347.656C39.6094 347.188 39.75 346.797 39.875 346.484V342.219C33.0938 333.5 26.7656 328.891 20.8906 328.391C20.6094 328.359 20.3281 328.344 20.0469 328.344C17.2969 328.344 14.9062 329.266 12.875 331.109C10.8438 332.922 9.28125 335.25 8.1875 338.094C7.09375 340.906 6.54688 343.844 6.54688 346.906C6.54688 352.156 8.07812 356.438 11.1406 359.75C14.2031 363.031 18.375 364.672 23.6562 364.672ZM56.2344 314.047C56.2344 312.891 56.5781 311.781 57.2656 310.719C57.9844 309.625 58.8594 308.75 59.8906 308.094C60.9219 307.406 61.9375 307.062 62.9375 307.062C64.4062 307.062 65.6406 307.688 66.6406 308.938C67.6719 310.156 68.1875 311.375 68.1875 312.594C68.1875 313.75 67.8281 314.812 67.1094 315.781C66.3906 316.75 65.4219 317.453 64.2031 317.891C62.8281 318.578 61.6094 318.922 60.5469 318.922C59.3906 318.922 58.375 318.453 57.5 317.516C56.6562 316.547 56.2344 315.391 56.2344 314.047ZM63.8281 363.359C63.7344 365.859 63.3906 367.859 62.7969 369.359C62.2031 370.828 61.1719 371.562 59.7031 371.562C58.8906 371.562 58.1719 371.266 57.5469 370.672C56.9219 370.078 56.6094 369.344 56.6094 368.469C56.6094 368.062 56.6875 367.656 56.8438 367.25C57.125 366.594 57.3438 365.297 57.5 363.359C57.6875 361.391 57.8281 359.078 57.9219 356.422C58.0156 353.766 58.0781 351.031 58.1094 348.219C58.1719 345.375 58.2031 342.734 58.2031 340.297C58.2031 337.859 58.2031 335.922 58.2031 334.484C58.2031 331.828 58.1875 329.281 58.1562 326.844C58.1562 325.844 58.4688 325.094 59.0938 324.594C59.75 324.094 60.4688 323.844 61.25 323.844C62 323.844 62.6719 324.094 63.2656 324.594C63.8906 325.062 64.2031 325.781 64.2031 326.75C64.2344 328.406 64.25 330.031 64.25 331.625C64.2812 333.219 64.2969 334.781 64.2969 336.312C64.2969 341.406 64.2656 346.016 64.2031 350.141C64.1719 354.266 64.0469 358.672 63.8281 363.359ZM77.6094 336.688C77.6094 333.781 78.375 331.344 79.9062 329.375C81.4375 327.375 83.4219 325.875 85.8594 324.875C88.2969 323.875 90.8906 323.375 93.6406 323.375C102.578 323.375 110.031 326.219 116 331.906C116.625 332.5 116.938 333.203 116.938 334.016C116.938 334.797 116.656 335.5 116.094 336.125C115.562 336.75 114.859 337.078 113.984 337.109C113.109 337.109 112.391 336.844 111.828 336.312C110.047 334.594 107.641 333.031 104.609 331.625C101.609 330.188 98.5469 329.469 95.4219 329.469C88.9844 329.469 85.1875 331.219 84.0312 334.719C83.7812 335.469 83.6562 336.188 83.6562 336.875C83.6562 338.75 84.5312 340.484 86.2812 342.078C88.2188 343.859 91.4688 344.75 96.0312 344.75C96.7812 344.75 97.5781 344.719 98.4219 344.656C99.2656 344.594 100.109 344.562 100.953 344.562C104.984 344.562 108.25 345.172 110.75 346.391C113.25 347.578 115.156 349.484 116.469 352.109C117.312 353.859 117.734 355.562 117.734 357.219C117.734 357.969 117.656 358.719 117.5 359.469C116.469 364.031 113.641 367.359 109.016 369.453C106.109 370.797 103.031 371.469 99.7812 371.469C99.125 371.469 98.4531 371.438 97.7656 371.375C90.3594 370.688 84.2031 368.188 79.2969 363.875C78.6094 363.281 78.2656 362.516 78.2656 361.578C78.2656 360.734 78.5625 360.031 79.1562 359.469C79.7812 358.875 80.5 358.578 81.3125 358.578C82.0938 358.578 82.7656 358.812 83.3281 359.281C85.5156 361.188 87.9531 362.672 90.6406 363.734C93.3281 364.797 96.4062 365.328 99.875 365.328C104.219 365.328 107.531 364.078 109.812 361.578C111.062 360.203 111.688 358.797 111.688 357.359C111.688 356.516 111.469 355.656 111.031 354.781C109.688 352.031 106.844 350.656 102.5 350.656C101.562 350.656 100.594 350.688 99.5938 350.75C98.5938 350.781 97.6875 350.797 96.875 350.797C93.1562 350.797 90.4062 350.562 88.625 350.094C86.1562 349.438 83.9688 348.234 82.0625 346.484C80.1562 344.734 78.8438 342.641 78.125 340.203C77.7812 339.047 77.6094 337.875 77.6094 336.688ZM151.625 369.5C151.625 370.344 151.312 371.062 150.688 371.656C150.062 372.25 149.344 372.547 148.531 372.547C148.031 372.547 147.562 372.422 147.125 372.172C143.094 370.016 140.656 364.125 139.812 354.5C139.625 352.406 139.484 350.156 139.391 347.75C139.297 345.312 139.25 342.703 139.25 339.922C139.25 337.234 139.297 334.297 139.391 331.109C137.859 331.109 136.328 331.109 134.797 331.109C133.266 331.078 131.719 331.062 130.156 331.062C129.344 331.062 128.625 330.75 128 330.125C127.406 329.469 127.109 328.734 127.109 327.922C127.109 327.172 127.406 326.5 128 325.906C128.625 325.281 129.344 324.969 130.156 324.969L139.578 325.016C139.609 324.078 139.656 322.641 139.719 320.703C139.781 318.766 139.844 316.703 139.906 314.516C139.969 312.328 140 310.406 140 308.75C140 308.25 139.984 307.797 139.953 307.391C139.953 306.984 139.953 306.609 139.953 306.266C139.953 305.328 140.266 304.609 140.891 304.109C141.547 303.609 142.25 303.359 143 303.359C143.75 303.359 144.438 303.594 145.062 304.062C145.688 304.531 146.016 305.25 146.047 306.219C146.078 306.844 146.094 307.641 146.094 308.609C146.094 310.328 146.062 312.281 146 314.469C145.938 316.656 145.875 318.734 145.812 320.703C145.75 322.641 145.703 324.094 145.672 325.062L152.75 325.109C153.719 325.109 154.453 325.438 154.953 326.094C155.453 326.75 155.703 327.453 155.703 328.203C155.703 328.953 155.453 329.641 154.953 330.266C154.484 330.891 153.766 331.203 152.797 331.203C152.766 331.203 152.75 331.203 152.75 331.203C151.531 331.203 150.312 331.203 149.094 331.203C147.906 331.172 146.703 331.156 145.484 331.156C145.422 333.969 145.391 336.625 145.391 339.125C145.391 350.438 146.156 358.391 147.688 362.984C148.406 365.078 149.156 366.328 149.938 366.734C150.406 366.984 150.797 367.359 151.109 367.859C151.453 368.359 151.625 368.906 151.625 369.5ZM168.359 371.375C167.484 371.375 166.734 370.953 166.109 370.109C165.484 369.234 165.172 368.453 165.172 367.766C165.172 367.172 165.266 366.562 165.453 365.938C165.672 365.312 165.797 364.719 165.828 364.156C165.922 362.438 166.094 360.125 166.344 357.219C166.594 354.281 166.719 351.438 166.719 348.688C166.719 346.688 166.688 344.516 166.625 342.172C166.438 335.266 166.156 331.062 165.781 329.562C165.625 328.906 165.547 328.312 165.547 327.781C165.547 326.875 165.797 326.141 166.297 325.578C166.828 324.984 167.562 324.688 168.5 324.688C169.219 324.688 169.844 324.922 170.375 325.391C170.906 325.859 171.25 326.391 171.406 326.984C172.094 329.578 172.5 333.562 172.625 338.938C177.188 329.969 183.359 325 191.141 324.031C191.266 324.031 191.391 324.031 191.516 324.031C192.453 324.031 193.172 324.375 193.672 325.062C194.203 325.719 194.469 326.438 194.469 327.219C194.469 327.906 194.266 328.531 193.859 329.094C193.453 329.656 192.797 329.984 191.891 330.078C183.953 331.078 178.109 338.188 174.359 351.406C173.453 354.625 172.766 357.938 172.297 361.344C172.203 362.75 172.109 363.859 172.016 364.672C171.953 365.484 171.922 366.25 171.922 366.969C171.922 367.375 171.953 367.703 172.016 367.953C172.078 368.203 172.109 368.422 172.109 368.609C172.109 369.297 171.641 369.938 170.703 370.531C169.797 371.094 169.016 371.375 168.359 371.375ZM233.938 338.422C234.031 338.766 234.078 339.125 234.078 339.5C234.078 340.219 233.938 341.047 233.656 341.984C233.188 346.922 232.953 351.328 232.953 355.203C232.953 360.609 233.406 365 234.312 368.375C234.406 368.688 234.453 368.984 234.453 369.266C234.453 370.141 234.109 370.828 233.422 371.328C232.766 371.859 232.047 372.125 231.266 372.125C230.672 372.125 230.109 371.953 229.578 371.609C229.047 371.266 228.672 370.703 228.453 369.922C227.484 366.328 226.969 361.766 226.906 356.234C223.938 361.016 220.75 364.781 217.344 367.531C215.281 369.188 213.156 370.125 210.969 370.344C209.656 370.719 208.375 370.906 207.125 370.906C205.344 370.906 203.719 370.578 202.25 369.922C200.781 369.266 199.516 368.438 198.453 367.438C196.547 365.656 195.062 363.359 194 360.547C192.969 357.703 192.453 354.422 192.453 350.703C192.453 345.922 193.562 341.359 195.781 337.016C199.031 330.641 203.969 326.391 210.594 324.266C213.125 323.422 215.562 323 217.906 323C220.844 323 223.609 323.688 226.203 325.062C230.734 327.469 233.312 331.922 233.938 338.422ZM227.844 338.844C227.562 335.844 226.578 333.469 224.891 331.719C223.234 329.969 220.969 329.094 218.094 329.094C216.375 329.094 214.5 329.422 212.469 330.078C207.438 331.672 203.766 334.75 201.453 339.312C199.516 343.156 198.547 346.984 198.547 350.797C198.547 353.484 198.906 355.891 199.625 358.016C200.344 360.141 201.266 361.734 202.391 362.797C203.797 364.109 205.391 364.766 207.172 364.766C207.766 364.766 208.328 364.703 208.859 364.578C209.422 364.422 210.047 364.312 210.734 364.25C211.266 364.188 212.312 363.547 213.875 362.328C215.438 361.078 217.094 359.312 218.844 357.031C220.625 354.75 222.297 352.188 223.859 349.344C225.422 346.5 226.688 343.641 227.656 340.766C227.688 340.453 227.719 340.141 227.75 339.828C227.781 339.484 227.812 339.156 227.844 338.844ZM249.922 352.812C249.922 356.656 251.031 359.734 253.25 362.047C255.5 364.359 258.703 365.516 262.859 365.516C266.453 365.516 270.688 364.641 275.562 362.891C275.906 362.766 276.266 362.703 276.641 362.703C277.453 362.703 278.156 363 278.75 363.594C279.375 364.156 279.688 364.844 279.688 365.656C279.688 366.375 279.484 367 279.078 367.531C278.672 368.062 278.188 368.422 277.625 368.609C272.062 370.641 267.125 371.656 262.812 371.656C258.031 371.656 254.109 370.531 251.047 368.281C247.984 366 245.922 363.094 244.859 359.562C244.172 357.281 243.828 354.984 243.828 352.672C243.828 349.516 244.453 346.297 245.703 343.016C246.859 339.953 248.516 337.062 250.672 334.344C252.859 331.625 255.5 329.422 258.594 327.734C261.719 326.016 265.234 325.156 269.141 325.156C271.703 325.156 274.359 325.578 277.109 326.422C277.828 326.641 278.344 327.016 278.656 327.547C279 328.047 279.172 328.594 279.172 329.188C279.172 329.969 278.906 330.703 278.375 331.391C277.875 332.047 277.188 332.375 276.312 332.375C276 332.375 275.688 332.328 275.375 332.234C273.375 331.641 271.422 331.344 269.516 331.344C266.516 331.344 263.812 332 261.406 333.312C259.031 334.594 257 336.281 255.312 338.375C253.625 340.438 252.328 342.672 251.422 345.078C250.422 347.734 249.922 350.312 249.922 352.812ZM313.531 369.5C313.531 370.344 313.219 371.062 312.594 371.656C311.969 372.25 311.25 372.547 310.438 372.547C309.938 372.547 309.469 372.422 309.031 372.172C305 370.016 302.562 364.125 301.719 354.5C301.531 352.406 301.391 350.156 301.297 347.75C301.203 345.312 301.156 342.703 301.156 339.922C301.156 337.234 301.203 334.297 301.297 331.109C299.766 331.109 298.234 331.109 296.703 331.109C295.172 331.078 293.625 331.062 292.062 331.062C291.25 331.062 290.531 330.75 289.906 330.125C289.312 329.469 289.016 328.734 289.016 327.922C289.016 327.172 289.312 326.5 289.906 325.906C290.531 325.281 291.25 324.969 292.062 324.969L301.484 325.016C301.516 324.078 301.562 322.641 301.625 320.703C301.688 318.766 301.75 316.703 301.812 314.516C301.875 312.328 301.906 310.406 301.906 308.75C301.906 308.25 301.891 307.797 301.859 307.391C301.859 306.984 301.859 306.609 301.859 306.266C301.859 305.328 302.172 304.609 302.797 304.109C303.453 303.609 304.156 303.359 304.906 303.359C305.656 303.359 306.344 303.594 306.969 304.062C307.594 304.531 307.922 305.25 307.953 306.219C307.984 306.844 308 307.641 308 308.609C308 310.328 307.969 312.281 307.906 314.469C307.844 316.656 307.781 318.734 307.719 320.703C307.656 322.641 307.609 324.094 307.578 325.062L314.656 325.109C315.625 325.109 316.359 325.438 316.859 326.094C317.359 326.75 317.609 327.453 317.609 328.203C317.609 328.953 317.359 329.641 316.859 330.266C316.391 330.891 315.672 331.203 314.703 331.203C314.672 331.203 314.656 331.203 314.656 331.203C313.438 331.203 312.219 331.203 311 331.203C309.812 331.172 308.609 331.156 307.391 331.156C307.328 333.969 307.297 336.625 307.297 339.125C307.297 350.438 308.062 358.391 309.594 362.984C310.312 365.078 311.062 366.328 311.844 366.734C312.312 366.984 312.703 367.359 313.016 367.859C313.359 368.359 313.531 368.906 313.531 369.5ZM327.078 314.047C327.078 312.891 327.422 311.781 328.109 310.719C328.828 309.625 329.703 308.75 330.734 308.094C331.766 307.406 332.781 307.062 333.781 307.062C335.25 307.062 336.484 307.688 337.484 308.938C338.516 310.156 339.031 311.375 339.031 312.594C339.031 313.75 338.672 314.812 337.953 315.781C337.234 316.75 336.266 317.453 335.047 317.891C333.672 318.578 332.453 318.922 331.391 318.922C330.234 318.922 329.219 318.453 328.344 317.516C327.5 316.547 327.078 315.391 327.078 314.047ZM334.672 363.359C334.578 365.859 334.234 367.859 333.641 369.359C333.047 370.828 332.016 371.562 330.547 371.562C329.734 371.562 329.016 371.266 328.391 370.672C327.766 370.078 327.453 369.344 327.453 368.469C327.453 368.062 327.531 367.656 327.688 367.25C327.969 366.594 328.188 365.297 328.344 363.359C328.531 361.391 328.672 359.078 328.766 356.422C328.859 353.766 328.922 351.031 328.953 348.219C329.016 345.375 329.047 342.734 329.047 340.297C329.047 337.859 329.047 335.922 329.047 334.484C329.047 331.828 329.031 329.281 329 326.844C329 325.844 329.312 325.094 329.938 324.594C330.594 324.094 331.312 323.844 332.094 323.844C332.844 323.844 333.516 324.094 334.109 324.594C334.734 325.062 335.047 325.781 335.047 326.75C335.078 328.406 335.094 330.031 335.094 331.625C335.125 333.219 335.141 334.781 335.141 336.312C335.141 341.406 335.109 346.016 335.047 350.141C335.016 354.266 334.891 358.672 334.672 363.359ZM372.5 322.391C380.281 322.859 386.656 326.703 391.625 333.922C392.969 335.859 394 338.016 394.719 340.391C395.438 342.734 395.797 345.344 395.797 348.219C395.797 352.5 394.781 356.344 392.75 359.75C390.719 363.125 388.266 365.734 385.391 367.578C383.547 368.766 381.469 369.719 379.156 370.438C376.844 371.125 374.453 371.469 371.984 371.469C367.391 371.469 363.469 370.469 360.219 368.469C357 366.438 354.406 363.922 352.438 360.922C349.781 356.797 348.453 352.375 348.453 347.656C348.453 346.406 348.547 345.141 348.734 343.859C349.609 337.641 352.219 332.547 356.562 328.578C360.938 324.578 365.875 322.469 371.375 322.25C371.75 322.188 372.125 322.234 372.5 322.391ZM389.656 347.891C389.656 344.266 388.812 341.031 387.125 338.188C385.438 335.312 383.25 333.031 380.562 331.344C377.906 329.625 375.109 328.672 372.172 328.484C371.922 328.484 371.672 328.438 371.422 328.344C368.234 328.531 365.359 329.516 362.797 331.297C360.234 333.047 358.203 335.359 356.703 338.234C355.234 341.078 354.5 344.25 354.5 347.75C354.5 350.438 355.016 352.875 356.047 355.062C357.109 357.25 358.469 359.125 360.125 360.688C361.812 362.219 363.562 363.359 365.375 364.109C367.562 364.984 369.812 365.422 372.125 365.422C375.344 365.422 378.266 364.672 380.891 363.172C383.547 361.641 385.562 359.797 386.938 357.641C387.844 356.203 388.516 354.656 388.953 353C389.422 351.312 389.656 349.609 389.656 347.891ZM408.312 322.719C409.219 322.719 409.969 323.078 410.562 323.797C412.812 326.516 414.453 330.703 415.484 336.359C419.734 328.672 425.219 324.344 431.938 323.375C433 323.219 434.047 323.141 435.078 323.141C438.828 323.141 442.141 324 445.016 325.719C447.891 327.438 450.25 329.703 452.094 332.516C453.938 335.328 455.188 338.359 455.844 341.609C456.281 343.703 456.5 345.844 456.5 348.031C456.5 354.938 454.297 362.234 449.891 369.922C449.328 370.891 448.469 371.375 447.312 371.375C446.344 371.375 445.469 370.922 444.688 370.016C443.938 369.078 443.906 368.031 444.594 366.875C448.469 360.125 450.406 353.828 450.406 347.984C450.406 346.234 450.234 344.531 449.891 342.875C449.391 340.469 448.469 338.234 447.125 336.172C445.812 334.109 444.125 332.453 442.062 331.203C440.031 329.922 437.688 329.281 435.031 329.281C434.312 329.281 433.578 329.328 432.828 329.422C429.734 329.859 427.094 331.219 424.906 333.5C422.719 335.781 420.953 338.547 419.609 341.797C418.297 345.016 417.344 348.297 416.75 351.641C416.75 352.047 416.75 352.453 416.75 352.859C416.75 357.359 416.516 361.891 416.047 366.453L415.859 368.281C415.766 369.156 415.422 369.812 414.828 370.25C414.234 370.656 413.594 370.859 412.906 370.859C412.156 370.859 411.453 370.625 410.797 370.156C410.172 369.688 409.844 368.984 409.812 368.047C409.75 366.641 409.719 365.266 409.719 363.922C409.719 359.328 410.031 355.094 410.656 351.219C410.531 344.031 409.969 338.641 408.969 335.047C408 331.484 407.109 329.203 406.297 328.203C405.547 327.266 405.172 326.438 405.172 325.719C405.172 324.812 405.5 324.094 406.156 323.562C406.812 323 407.531 322.719 408.312 322.719ZM465.922 336.688C465.922 333.781 466.688 331.344 468.219 329.375C469.75 327.375 471.734 325.875 474.172 324.875C476.609 323.875 479.203 323.375 481.953 323.375C490.891 323.375 498.344 326.219 504.312 331.906C504.938 332.5 505.25 333.203 505.25 334.016C505.25 334.797 504.969 335.5 504.406 336.125C503.875 336.75 503.172 337.078 502.297 337.109C501.422 337.109 500.703 336.844 500.141 336.312C498.359 334.594 495.953 333.031 492.922 331.625C489.922 330.188 486.859 329.469 483.734 329.469C477.297 329.469 473.5 331.219 472.344 334.719C472.094 335.469 471.969 336.188 471.969 336.875C471.969 338.75 472.844 340.484 474.594 342.078C476.531 343.859 479.781 344.75 484.344 344.75C485.094 344.75 485.891 344.719 486.734 344.656C487.578 344.594 488.422 344.562 489.266 344.562C493.297 344.562 496.562 345.172 499.062 346.391C501.562 347.578 503.469 349.484 504.781 352.109C505.625 353.859 506.047 355.562 506.047 357.219C506.047 357.969 505.969 358.719 505.812 359.469C504.781 364.031 501.953 367.359 497.328 369.453C494.422 370.797 491.344 371.469 488.094 371.469C487.438 371.469 486.766 371.438 486.078 371.375C478.672 370.688 472.516 368.188 467.609 363.875C466.922 363.281 466.578 362.516 466.578 361.578C466.578 360.734 466.875 360.031 467.469 359.469C468.094 358.875 468.812 358.578 469.625 358.578C470.406 358.578 471.078 358.812 471.641 359.281C473.828 361.188 476.266 362.672 478.953 363.734C481.641 364.797 484.719 365.328 488.188 365.328C492.531 365.328 495.844 364.078 498.125 361.578C499.375 360.203 500 358.797 500 357.359C500 356.516 499.781 355.656 499.344 354.781C498 352.031 495.156 350.656 490.812 350.656C489.875 350.656 488.906 350.688 487.906 350.75C486.906 350.781 486 350.797 485.188 350.797C481.469 350.797 478.719 350.562 476.938 350.094C474.469 349.438 472.281 348.234 470.375 346.484C468.469 344.734 467.156 342.641 466.438 340.203C466.094 339.047 465.922 337.875 465.922 336.688ZM525.781 366.969C525.781 368.312 525.297 369.484 524.328 370.484C523.391 371.484 522.172 371.984 520.672 371.984C518.953 371.984 517.656 371.422 516.781 370.297C515.906 369.172 515.469 367.812 515.469 366.219C515.469 365.469 515.562 364.703 515.75 363.922C515.875 363.359 516.156 362.656 516.594 361.812C517.031 360.938 517.562 360.172 518.188 359.516C518.812 358.859 519.469 358.531 520.156 358.531C521.125 358.531 522.031 359.016 522.875 359.984C523.75 360.922 524.453 362.047 524.984 363.359C525.516 364.672 525.781 365.875 525.781 366.969ZM538.25 331.062C537.438 331.062 536.719 330.766 536.094 330.172C535.5 329.547 535.203 328.828 535.203 328.016C535.203 327.203 535.5 326.5 536.094 325.906C536.719 325.281 537.438 324.969 538.25 324.969H546.547C546.578 320.875 546.625 317.75 546.688 315.594C546.75 313 547.453 310.734 548.797 308.797C550.141 306.859 551.906 305.359 554.094 304.297C556.312 303.234 558.734 302.703 561.359 302.703C562.734 302.703 564.109 302.859 565.484 303.172C570.203 304.203 574.125 307.125 577.25 311.938C577.594 312.469 577.766 313.016 577.766 313.578C577.766 314.422 577.422 315.141 576.734 315.734C576.078 316.328 575.328 316.625 574.484 316.625C573.484 316.625 572.688 316.172 572.094 315.266C569.875 311.859 567.234 309.812 564.172 309.125C563.266 308.938 562.359 308.844 561.453 308.844C559.172 308.844 557.172 309.453 555.453 310.672C553.734 311.891 552.844 313.516 552.781 315.547C552.75 317.734 552.703 320.875 552.641 324.969H560.562C561.375 324.969 562.078 325.281 562.672 325.906C563.297 326.5 563.609 327.203 563.609 328.016C563.609 328.828 563.297 329.547 562.672 330.172C562.078 330.766 561.375 331.062 560.562 331.062H552.594C552.562 332.781 552.547 335.953 552.547 340.578C552.547 345.172 552.516 351.203 552.453 358.672L552.406 368C552.406 368.969 552.094 369.703 551.469 370.203C550.844 370.672 550.141 370.906 549.359 370.906C548.609 370.906 547.906 370.672 547.25 370.203C546.625 369.703 546.312 368.953 546.312 367.953L546.359 358.672C546.422 351.234 546.453 345.219 546.453 340.625C546.453 336.031 546.469 332.844 546.5 331.062H538.25ZM590.234 371.375C589.359 371.375 588.609 370.953 587.984 370.109C587.359 369.234 587.047 368.453 587.047 367.766C587.047 367.172 587.141 366.562 587.328 365.938C587.547 365.312 587.672 364.719 587.703 364.156C587.797 362.438 587.969 360.125 588.219 357.219C588.469 354.281 588.594 351.438 588.594 348.688C588.594 346.688 588.562 344.516 588.5 342.172C588.312 335.266 588.031 331.062 587.656 329.562C587.5 328.906 587.422 328.312 587.422 327.781C587.422 326.875 587.672 326.141 588.172 325.578C588.703 324.984 589.438 324.688 590.375 324.688C591.094 324.688 591.719 324.922 592.25 325.391C592.781 325.859 593.125 326.391 593.281 326.984C593.969 329.578 594.375 333.562 594.5 338.938C599.062 329.969 605.234 325 613.016 324.031C613.141 324.031 613.266 324.031 613.391 324.031C614.328 324.031 615.047 324.375 615.547 325.062C616.078 325.719 616.344 326.438 616.344 327.219C616.344 327.906 616.141 328.531 615.734 329.094C615.328 329.656 614.672 329.984 613.766 330.078C605.828 331.078 599.984 338.188 596.234 351.406C595.328 354.625 594.641 357.938 594.172 361.344C594.078 362.75 593.984 363.859 593.891 364.672C593.828 365.484 593.797 366.25 593.797 366.969C593.797 367.375 593.828 367.703 593.891 367.953C593.953 368.203 593.984 368.422 593.984 368.609C593.984 369.297 593.516 369.938 592.578 370.531C591.672 371.094 590.891 371.375 590.234 371.375ZM620.984 355.109C621.891 358.359 623.641 360.906 626.234 362.75C628.859 364.594 632.156 365.516 636.125 365.516C641.438 365.516 647.609 363.781 654.641 360.312C655.078 360.094 655.531 359.984 656 359.984C656.812 359.984 657.516 360.266 658.109 360.828C658.734 361.391 659.047 362.094 659.047 362.938C659.047 364.281 658.484 365.234 657.359 365.797C653.797 367.547 650.172 368.953 646.484 370.016C642.797 371.078 639.234 371.609 635.797 371.609C632.266 371.609 628.969 370.953 625.906 369.641C622.875 368.328 620.281 366.141 618.125 363.078C616.906 361.359 615.969 359.531 615.312 357.594C614.656 355.656 614.328 353.484 614.328 351.078C614.328 350.016 614.391 348.906 614.516 347.75C615.234 341.781 617.719 336.672 621.969 332.422C627.469 326.922 634.703 324.172 643.672 324.172C647.109 324.172 650.125 324.844 652.719 326.188C655.312 327.5 657.156 329.375 658.25 331.812C658.844 333.156 659.141 334.578 659.141 336.078C659.141 338.641 658.469 340.906 657.125 342.875C655.812 344.812 653.938 346.609 651.5 348.266C644.656 352.891 634.734 355.203 621.734 355.203C621.547 355.203 621.297 355.172 620.984 355.109ZM620.469 349.391C620.906 349.203 621.328 349.109 621.734 349.109C633.516 349.109 642.312 347.141 648.125 343.203C649.75 342.109 650.984 341 651.828 339.875C652.672 338.719 653.094 337.391 653.094 335.891C653.094 335.016 652.891 334.312 652.484 333.781C652.109 333.25 651.609 332.75 650.984 332.281C649.234 330.938 646.812 330.266 643.719 330.266C639.562 330.266 635.781 331.047 632.375 332.609C628.969 334.141 626.203 336.344 624.078 339.219C621.984 342.062 620.781 345.453 620.469 349.391ZM667.484 355.109C668.391 358.359 670.141 360.906 672.734 362.75C675.359 364.594 678.656 365.516 682.625 365.516C687.938 365.516 694.109 363.781 701.141 360.312C701.578 360.094 702.031 359.984 702.5 359.984C703.312 359.984 704.016 360.266 704.609 360.828C705.234 361.391 705.547 362.094 705.547 362.938C705.547 364.281 704.984 365.234 703.859 365.797C700.297 367.547 696.672 368.953 692.984 370.016C689.297 371.078 685.734 371.609 682.297 371.609C678.766 371.609 675.469 370.953 672.406 369.641C669.375 368.328 666.781 366.141 664.625 363.078C663.406 361.359 662.469 359.531 661.812 357.594C661.156 355.656 660.828 353.484 660.828 351.078C660.828 350.016 660.891 348.906 661.016 347.75C661.734 341.781 664.219 336.672 668.469 332.422C673.969 326.922 681.203 324.172 690.172 324.172C693.609 324.172 696.625 324.844 699.219 326.188C701.812 327.5 703.656 329.375 704.75 331.812C705.344 333.156 705.641 334.578 705.641 336.078C705.641 338.641 704.969 340.906 703.625 342.875C702.312 344.812 700.438 346.609 698 348.266C691.156 352.891 681.234 355.203 668.234 355.203C668.047 355.203 667.797 355.172 667.484 355.109ZM666.969 349.391C667.406 349.203 667.828 349.109 668.234 349.109C680.016 349.109 688.812 347.141 694.625 343.203C696.25 342.109 697.484 341 698.328 339.875C699.172 338.719 699.594 337.391 699.594 335.891C699.594 335.016 699.391 334.312 698.984 333.781C698.609 333.25 698.109 332.75 697.484 332.281C695.734 330.938 693.312 330.266 690.219 330.266C686.062 330.266 682.281 331.047 678.875 332.609C675.469 334.141 672.703 336.344 670.578 339.219C668.484 342.062 667.281 345.453 666.969 349.391Z" fill="white"/>
</svg>
