<svg width="1618" height="496" viewBox="0 0 1618 496" fill="none" xmlns="http://www.w3.org/2000/svg">
<path d="M583.466 267.5L666 104.533L748.534 267.5H583.466Z" fill="#1E7200" stroke="black" stroke-width="5"/>
<line y1="-2.5" x2="153.721" y2="-2.5" transform="matrix(-0.00710113 0.999975 -0.999973 -0.00739421 665.335 173.767)" stroke="black" stroke-width="5"/>
<line y1="-2.5" x2="61.0227" y2="-2.5" transform="matrix(-0.447206 -0.894431 0.886989 -0.46179 670.793 220.55)" stroke="black" stroke-width="5"/>
<line y1="-2.5" x2="52.3128" y2="-2.5" transform="matrix(0.751197 -0.660079 0.644925 0.764246 670.793 226.119)" stroke="black" stroke-width="5"/>
<line y1="-2.5" x2="63.1137" y2="-2.5" transform="matrix(-0.812892 -0.582414 0.566848 -0.823822 670.793 250.625)" stroke="black" stroke-width="5"/>
<path d="M665.695 253.498L706.378 226.119" stroke="black" stroke-width="5"/>
<line y1="-2.5" x2="539.25" y2="-2.5" transform="matrix(0.999991 -0.00424291 0.00407473 0.999992 566 327.483)" stroke="black" stroke-width="5"/>
<path d="M824.957 324.75L901.5 113.343L978.043 324.75H824.957Z" fill="#0CA7C9" stroke="black" stroke-width="5"/>
<path d="M863.632 321.25L902.5 229.834L941.368 321.25H863.632Z" fill="#C51111" stroke="black" stroke-width="3"/>
<path d="M901.663 120.283L902.755 229.444" stroke="black" stroke-width="3"/>
<line y1="-1.5" x2="21.6434" y2="-1.5" transform="matrix(0.857397 0.514655 -0.499421 0.86636 845.447 269.561)" stroke="black" stroke-width="3"/>
<line y1="-1.5" x2="21.6434" y2="-1.5" transform="matrix(0.857397 0.514655 -0.499421 0.86636 845.447 269.561)" stroke="black" stroke-width="3"/>
<line y1="-1.5" x2="21.6434" y2="-1.5" transform="matrix(0.857397 0.514655 -0.499421 0.86636 845.447 269.561)" stroke="black" stroke-width="3"/>
<line y1="-1.5" x2="21.6434" y2="-1.5" transform="matrix(0.857397 0.514655 -0.499421 0.86636 836.714 280.7)" stroke="black" stroke-width="3"/>
<path d="M982 325L902.348 111.366M893.636 88L902.348 111.366M902.348 111.366L826 325L913.273 88" stroke="black" stroke-width="5"/>
<path d="M1088.69 22.7387C1089.77 22.7387 1090.65 21.8734 1090.65 20.8041V1.93461C1090.65 0.865298 1089.77 0 1088.69 0C1087.61 0 1086.73 0.865298 1086.73 1.93461V20.8041C1086.73 21.8734 1087.61 22.7387 1088.69 22.7387Z" fill="black"/>
<path d="M1119.88 9.00034C1118.94 8.45999 1117.74 8.77914 1117.2 9.70491L1107.62 26.0447C1107.08 26.9705 1107.4 28.1532 1108.34 28.6878C1108.65 28.8653 1108.98 28.9486 1109.32 28.9486C1110 28.9486 1110.65 28.6028 1111.02 27.9832L1120.6 11.6432C1121.14 10.7176 1120.82 9.5349 1119.88 9.00034Z" fill="black"/>
<path d="M1124.03 44.4892C1124.37 44.4892 1124.7 44.4061 1125.01 44.2303L1141.6 34.7957C1142.54 34.2628 1142.86 33.0784 1142.32 32.1526C1141.78 31.2307 1140.59 30.9094 1139.64 31.4442L1123.05 40.8788C1122.11 41.4116 1121.79 42.5963 1122.33 43.5219C1122.69 44.1416 1123.36 44.4892 1124.03 44.4892Z" fill="black"/>
<path d="M1047.55 63.2547C1047.55 62.1856 1046.67 61.3203 1045.59 61.3203H1026.43C1025.34 61.3203 1024.47 62.1856 1024.47 63.2547C1024.47 64.324 1025.34 65.1893 1026.43 65.1893H1045.59C1046.67 65.1893 1047.55 64.324 1047.55 63.2547Z" fill="black"/>
<path d="M1032.87 34.7957L1049.46 44.2303C1049.77 44.4061 1050.1 44.4892 1050.44 44.4892C1051.11 44.4892 1051.77 44.1416 1052.14 43.5219C1052.68 42.5963 1052.35 41.4116 1051.42 40.8788L1034.83 31.4442C1033.88 30.9094 1032.69 31.2269 1032.15 32.1526C1031.61 33.0784 1031.93 34.2628 1032.87 34.7957Z" fill="black"/>
<path d="M1065.15 28.9486C1065.48 28.9486 1065.82 28.8653 1066.13 28.6897C1067.07 28.1532 1067.39 26.9705 1066.85 26.0467L1057.27 9.70684C1056.73 8.77914 1055.52 8.46192 1054.59 8.99841C1053.65 9.5349 1053.33 10.7176 1053.87 11.6414L1063.45 27.9813C1063.81 28.6028 1064.47 28.9486 1065.15 28.9486Z" fill="black"/>
<path d="M1088.69 100.907C1087.61 100.907 1086.73 101.772 1086.73 102.841V121.707C1086.73 122.776 1087.61 123.642 1088.69 123.642C1089.77 123.642 1090.65 122.776 1090.65 121.707V102.841C1090.65 101.772 1089.77 100.907 1088.69 100.907Z" fill="black"/>
<path d="M1068.65 96.3897C1067.71 95.8495 1066.51 96.1687 1065.97 97.0944L1056.39 113.434C1055.85 114.36 1056.17 115.543 1057.11 116.077C1057.42 116.255 1057.76 116.338 1058.09 116.338C1058.77 116.338 1059.43 115.992 1059.79 115.373L1069.37 99.0327C1069.91 98.107 1069.59 96.9244 1068.65 96.3897Z" fill="black"/>
<path d="M1050.91 81.8975L1034.32 91.3324C1033.39 91.865 1033.06 93.0496 1033.6 93.9754C1033.97 94.595 1034.63 94.9427 1035.31 94.9427C1035.64 94.9427 1035.97 94.8594 1036.28 94.6838L1052.87 85.249C1053.81 84.7164 1054.13 83.5317 1053.59 82.606C1053.05 81.6821 1051.86 81.361 1050.91 81.8975Z" fill="black"/>
<path d="M1148.04 61.3203H1128.88C1127.8 61.3203 1126.92 62.1856 1126.92 63.2547C1126.92 64.324 1127.8 65.1893 1128.88 65.1893H1148.04C1149.12 65.1893 1150 64.324 1150 63.2547C1150 62.1856 1149.12 61.3203 1148.04 61.3203Z" fill="black"/>
<path d="M1140.14 91.3324L1123.55 81.8975C1122.61 81.363 1121.41 81.6821 1120.88 82.606C1120.33 83.5317 1120.66 84.7164 1121.59 85.249L1138.18 94.6838C1138.49 94.8594 1138.83 94.9427 1139.16 94.9427C1139.84 94.9427 1140.5 94.5949 1140.86 93.9754C1141.41 93.0496 1141.08 91.865 1140.14 91.3324Z" fill="black"/>
<path d="M1108.49 97.0944C1107.95 96.1687 1106.75 95.8495 1105.81 96.3897C1104.88 96.9244 1104.55 98.107 1105.1 99.0327L1114.68 115.373C1115.04 115.992 1115.7 116.338 1116.38 116.338C1116.71 116.338 1117.05 116.255 1117.36 116.077C1118.29 115.543 1118.61 114.36 1118.07 113.434L1108.49 97.0944Z" fill="black"/>
<path d="M1113.5 61.5C1113.5 76.4626 1101.81 88.5 1087.5 88.5C1073.19 88.5 1061.5 76.4626 1061.5 61.5C1061.5 46.5374 1073.19 34.5 1087.5 34.5C1101.81 34.5 1113.5 46.5374 1113.5 61.5Z" fill="#F4EC1A" stroke="black" stroke-width="3"/>
<path d="M106.031 446.238C106.031 451.538 106.282 457.303 106.783 463.533C107.285 469.692 107.535 475.135 107.535 479.861C107.535 482.654 106.962 485.089 105.816 487.166C104.742 489.171 102.773 490.174 99.9082 490.174C97.9746 490.174 96.3991 489.422 95.1816 487.918C93.9642 486.414 93.2839 484.695 93.1406 482.762C92.9974 480.9 92.8542 478.715 92.7109 476.209C92.5677 473.702 92.4245 470.91 92.2812 467.83C82.3268 483.585 69.6152 491.463 54.1465 491.463C43.7624 491.463 34.5599 489.171 26.5391 484.588C18.5898 480.005 12.3236 473.667 7.74023 465.574C3.22852 457.41 0.972656 448.029 0.972656 437.43C0.972656 429.409 2.33333 421.603 5.05469 414.012C7.77604 406.349 11.4642 399.725 16.1191 394.139C23.7103 384.972 33.4857 380.389 45.4453 380.389C46.7344 380.389 48.0592 380.424 49.4199 380.496C63.1699 381.57 77.1706 389.555 91.4219 404.451C91.4219 400.011 91.4219 394.819 91.4219 388.875C91.4219 382.859 91.4577 376.128 91.5293 368.68L91.7441 342.469C91.7441 340.249 92.4603 338.566 93.8926 337.42C95.3965 336.274 97.0078 335.701 98.7266 335.701C100.517 335.701 102.128 336.274 103.561 337.42C104.993 338.566 105.709 340.285 105.709 342.576L105.494 368.895C105.423 378.562 105.351 387.371 105.279 395.32C105.279 403.198 105.279 410.216 105.279 416.375C105.279 424.181 105.315 430.411 105.387 435.066C105.816 436.355 106.031 438.611 106.031 441.834C106.031 442.55 106.031 443.266 106.031 443.982C106.031 444.699 106.031 445.451 106.031 446.238ZM54.2539 477.498C68.9349 477.498 80.5365 465.789 89.0586 442.371C89.6315 440.867 90.097 439.578 90.4551 438.504C90.8132 437.43 91.1354 436.535 91.4219 435.818V426.043C75.8815 406.062 61.3796 395.499 47.916 394.354C47.2715 394.282 46.627 394.246 45.9824 394.246C39.6803 394.246 34.2018 396.359 29.5469 400.584C24.8919 404.738 21.3112 410.073 18.8047 416.59C16.2982 423.035 15.0449 429.767 15.0449 436.785C15.0449 448.816 18.554 458.628 25.5723 466.219C32.5905 473.738 42.151 477.498 54.2539 477.498ZM128.912 361.482C128.912 358.833 129.7 356.29 131.275 353.855C132.923 351.349 134.928 349.344 137.291 347.84C139.654 346.264 141.982 345.477 144.273 345.477C147.639 345.477 150.468 346.909 152.76 349.773C155.123 352.566 156.305 355.359 156.305 358.152C156.305 360.802 155.481 363.237 153.834 365.457C152.187 367.677 149.967 369.288 147.174 370.291C144.023 371.867 141.23 372.654 138.795 372.654C136.145 372.654 133.818 371.58 131.812 369.432C129.879 367.212 128.912 364.562 128.912 361.482ZM146.314 474.49C146.1 480.219 145.312 484.803 143.951 488.24C142.59 491.606 140.227 493.289 136.861 493.289C134.999 493.289 133.352 492.609 131.92 491.248C130.488 489.887 129.771 488.204 129.771 486.199C129.771 485.268 129.951 484.337 130.309 483.406C130.953 481.902 131.454 478.93 131.812 474.49C132.242 469.979 132.564 464.679 132.779 458.592C132.994 452.505 133.137 446.238 133.209 439.793C133.352 433.276 133.424 427.225 133.424 421.639C133.424 416.053 133.424 411.613 133.424 408.318C133.424 402.231 133.388 396.395 133.316 390.809C133.316 388.517 134.033 386.798 135.465 385.652C136.969 384.507 138.616 383.934 140.406 383.934C142.125 383.934 143.665 384.507 145.025 385.652C146.458 386.727 147.174 388.374 147.174 390.594C147.245 394.389 147.281 398.113 147.281 401.766C147.353 405.418 147.389 408.999 147.389 412.508C147.389 424.181 147.317 434.744 147.174 444.197C147.102 453.65 146.816 463.748 146.314 474.49ZM177.896 413.367C177.896 406.707 179.651 401.121 183.16 396.609C186.669 392.026 191.217 388.589 196.803 386.297C202.389 384.005 208.333 382.859 214.635 382.859C235.117 382.859 252.197 389.376 265.875 402.41C267.307 403.771 268.023 405.382 268.023 407.244C268.023 409.035 267.379 410.646 266.09 412.078C264.872 413.51 263.261 414.262 261.256 414.334C259.251 414.334 257.604 413.725 256.314 412.508C252.232 408.569 246.718 404.988 239.771 401.766C232.896 398.471 225.878 396.824 218.717 396.824C203.964 396.824 195.263 400.835 192.613 408.855C192.04 410.574 191.754 412.221 191.754 413.797C191.754 418.094 193.759 422.068 197.77 425.721C202.21 429.803 209.658 431.844 220.113 431.844C221.832 431.844 223.658 431.772 225.592 431.629C227.525 431.486 229.459 431.414 231.393 431.414C240.631 431.414 248.115 432.811 253.844 435.604C259.573 438.325 263.941 442.693 266.949 448.709C268.883 452.719 269.85 456.622 269.85 460.418C269.85 462.137 269.671 463.855 269.312 465.574C266.949 476.03 260.468 483.657 249.869 488.455C243.209 491.535 236.155 493.074 228.707 493.074C227.203 493.074 225.663 493.003 224.088 492.859C207.115 491.284 193.007 485.555 181.764 475.672C180.188 474.311 179.4 472.557 179.4 470.408C179.4 468.475 180.081 466.863 181.441 465.574C182.874 464.214 184.521 463.533 186.383 463.533C188.173 463.533 189.713 464.07 191.002 465.145C196.015 469.513 201.601 472.915 207.76 475.35C213.919 477.785 220.973 479.002 228.922 479.002C238.876 479.002 246.467 476.137 251.695 470.408C254.56 467.257 255.992 464.035 255.992 460.74C255.992 458.807 255.491 456.837 254.488 454.832C251.409 448.53 244.892 445.379 234.938 445.379C232.789 445.379 230.569 445.451 228.277 445.594C225.986 445.665 223.909 445.701 222.047 445.701C213.525 445.701 207.223 445.164 203.141 444.09C197.483 442.586 192.47 439.829 188.102 435.818C183.733 431.808 180.725 427.01 179.078 421.424C178.29 418.774 177.896 416.089 177.896 413.367ZM347.516 488.562C347.516 490.496 346.799 492.143 345.367 493.504C343.935 494.865 342.288 495.545 340.426 495.545C339.28 495.545 338.206 495.258 337.203 494.686C327.965 489.744 322.379 476.245 320.445 454.188C320.016 449.389 319.693 444.233 319.479 438.719C319.264 433.133 319.156 427.153 319.156 420.779C319.156 414.62 319.264 407.889 319.479 400.584C315.969 400.584 312.46 400.584 308.951 400.584C305.442 400.512 301.897 400.477 298.316 400.477C296.454 400.477 294.807 399.76 293.375 398.328C292.014 396.824 291.334 395.141 291.334 393.279C291.334 391.561 292.014 390.021 293.375 388.66C294.807 387.228 296.454 386.512 298.316 386.512L319.908 386.619C319.98 384.471 320.087 381.176 320.23 376.736C320.374 372.296 320.517 367.57 320.66 362.557C320.803 357.544 320.875 353.139 320.875 349.344C320.875 348.198 320.839 347.16 320.768 346.229C320.768 345.298 320.768 344.438 320.768 343.65C320.768 341.502 321.484 339.855 322.916 338.709C324.42 337.563 326.031 336.99 327.75 336.99C329.469 336.99 331.044 337.527 332.477 338.602C333.909 339.676 334.661 341.323 334.732 343.543C334.804 344.975 334.84 346.801 334.84 349.021C334.84 352.96 334.768 357.436 334.625 362.449C334.482 367.462 334.339 372.225 334.195 376.736C334.052 381.176 333.945 384.507 333.873 386.727L350.094 386.834C352.314 386.834 353.997 387.586 355.143 389.09C356.288 390.594 356.861 392.205 356.861 393.924C356.861 395.643 356.288 397.218 355.143 398.65C354.068 400.083 352.421 400.799 350.201 400.799C350.13 400.799 350.094 400.799 350.094 400.799C347.301 400.799 344.508 400.799 341.715 400.799C338.993 400.727 336.236 400.691 333.443 400.691C333.3 407.137 333.229 413.224 333.229 418.953C333.229 444.878 334.983 463.104 338.492 473.631C340.139 478.429 341.858 481.294 343.648 482.225C344.723 482.798 345.618 483.657 346.334 484.803C347.122 485.949 347.516 487.202 347.516 488.562ZM385.865 492.859C383.86 492.859 382.141 491.893 380.709 489.959C379.277 487.954 378.561 486.163 378.561 484.588C378.561 483.227 378.775 481.831 379.205 480.398C379.706 478.966 379.993 477.605 380.064 476.316C380.279 472.378 380.673 467.078 381.246 460.418C381.819 453.686 382.105 447.169 382.105 440.867C382.105 436.284 382.034 431.307 381.891 425.936C381.461 410.109 380.816 400.477 379.957 397.039C379.599 395.535 379.42 394.174 379.42 392.957C379.42 390.88 379.993 389.197 381.139 387.908C382.356 386.548 384.039 385.867 386.188 385.867C387.835 385.867 389.267 386.404 390.484 387.479C391.702 388.553 392.49 389.77 392.848 391.131C394.423 397.075 395.354 406.206 395.641 418.523C406.096 397.97 420.24 386.583 438.072 384.363C438.359 384.363 438.645 384.363 438.932 384.363C441.08 384.363 442.727 385.151 443.873 386.727C445.09 388.23 445.699 389.878 445.699 391.668C445.699 393.243 445.234 394.676 444.303 395.965C443.372 397.254 441.868 398.006 439.791 398.221C421.601 400.512 408.209 416.805 399.615 447.098C397.538 454.474 395.963 462.065 394.889 469.871C394.674 473.094 394.459 475.636 394.244 477.498C394.101 479.36 394.029 481.115 394.029 482.762C394.029 483.693 394.101 484.445 394.244 485.018C394.387 485.59 394.459 486.092 394.459 486.521C394.459 488.097 393.385 489.565 391.236 490.926C389.16 492.215 387.369 492.859 385.865 492.859ZM536.148 417.342C536.363 418.13 536.471 418.953 536.471 419.812C536.471 421.46 536.148 423.357 535.504 425.506C534.43 436.821 533.893 446.919 533.893 455.799C533.893 468.188 534.931 478.25 537.008 485.984C537.223 486.701 537.33 487.381 537.33 488.025C537.33 490.031 536.542 491.606 534.967 492.752C533.463 493.969 531.816 494.578 530.025 494.578C528.665 494.578 527.376 494.184 526.158 493.396C524.941 492.609 524.081 491.32 523.58 489.529C521.36 481.294 520.178 470.838 520.035 458.162C513.232 469.119 505.927 477.749 498.121 484.051C493.395 487.846 488.525 489.995 483.512 490.496C480.504 491.355 477.568 491.785 474.703 491.785C470.621 491.785 466.897 491.033 463.531 489.529C460.165 488.025 457.265 486.128 454.83 483.836C450.462 479.754 447.06 474.49 444.625 468.045C442.262 461.528 441.08 454.008 441.08 445.486C441.08 434.529 443.622 424.074 448.707 414.119C456.155 399.51 467.47 389.77 482.652 384.9C488.453 382.967 494.039 382 499.41 382C506.142 382 512.48 383.576 518.424 386.727C528.808 392.241 534.716 402.446 536.148 417.342ZM522.184 418.309C521.539 411.434 519.283 405.991 515.416 401.98C511.62 397.97 506.428 395.965 499.84 395.965C495.901 395.965 491.604 396.717 486.949 398.221C475.419 401.873 467.005 408.927 461.705 419.383C457.265 428.191 455.045 436.964 455.045 445.701C455.045 451.86 455.868 457.374 457.516 462.244C459.163 467.114 461.275 470.766 463.854 473.201C467.076 476.209 470.729 477.713 474.811 477.713C476.171 477.713 477.46 477.57 478.678 477.283C479.967 476.925 481.399 476.674 482.975 476.531C484.192 476.388 486.591 474.92 490.172 472.127C493.753 469.262 497.548 465.216 501.559 459.988C505.641 454.76 509.472 448.888 513.053 442.371C516.633 435.854 519.534 429.301 521.754 422.713C521.826 421.997 521.897 421.281 521.969 420.564C522.04 419.777 522.112 419.025 522.184 418.309ZM572.779 450.32C572.779 459.129 575.322 466.183 580.406 471.482C585.562 476.782 592.903 479.432 602.428 479.432C610.663 479.432 620.367 477.426 631.539 473.416C632.327 473.13 633.15 472.986 634.01 472.986C635.872 472.986 637.483 473.667 638.844 475.027C640.276 476.316 640.992 477.892 640.992 479.754C640.992 481.401 640.527 482.833 639.596 484.051C638.665 485.268 637.555 486.092 636.266 486.521C623.518 491.176 612.203 493.504 602.32 493.504C591.363 493.504 582.376 490.926 575.357 485.77C568.339 480.542 563.613 473.882 561.178 465.789C559.602 460.561 558.814 455.298 558.814 449.998C558.814 442.765 560.247 435.389 563.111 427.869C565.761 420.851 569.557 414.227 574.498 407.996C579.511 401.766 585.562 396.717 592.652 392.85C599.814 388.911 607.87 386.941 616.822 386.941C622.695 386.941 628.782 387.908 635.084 389.842C636.731 390.343 637.913 391.202 638.629 392.42C639.417 393.566 639.811 394.819 639.811 396.18C639.811 397.97 639.202 399.653 637.984 401.229C636.839 402.732 635.263 403.484 633.258 403.484C632.542 403.484 631.826 403.377 631.109 403.162C626.526 401.801 622.05 401.121 617.682 401.121C610.807 401.121 604.612 402.625 599.098 405.633C593.655 408.569 589 412.436 585.133 417.234C581.266 421.961 578.294 427.081 576.217 432.596C573.925 438.683 572.779 444.591 572.779 450.32ZM718.551 488.562C718.551 490.496 717.835 492.143 716.402 493.504C714.97 494.865 713.323 495.545 711.461 495.545C710.315 495.545 709.241 495.258 708.238 494.686C699 489.744 693.414 476.245 691.48 454.188C691.051 449.389 690.729 444.233 690.514 438.719C690.299 433.133 690.191 427.153 690.191 420.779C690.191 414.62 690.299 407.889 690.514 400.584C687.005 400.584 683.495 400.584 679.986 400.584C676.477 400.512 672.932 400.477 669.352 400.477C667.49 400.477 665.842 399.76 664.41 398.328C663.049 396.824 662.369 395.141 662.369 393.279C662.369 391.561 663.049 390.021 664.41 388.66C665.842 387.228 667.49 386.512 669.352 386.512L690.943 386.619C691.015 384.471 691.122 381.176 691.266 376.736C691.409 372.296 691.552 367.57 691.695 362.557C691.839 357.544 691.91 353.139 691.91 349.344C691.91 348.198 691.874 347.16 691.803 346.229C691.803 345.298 691.803 344.438 691.803 343.65C691.803 341.502 692.519 339.855 693.951 338.709C695.455 337.563 697.066 336.99 698.785 336.99C700.504 336.99 702.079 337.527 703.512 338.602C704.944 339.676 705.696 341.323 705.768 343.543C705.839 344.975 705.875 346.801 705.875 349.021C705.875 352.96 705.803 357.436 705.66 362.449C705.517 367.462 705.374 372.225 705.23 376.736C705.087 381.176 704.98 384.507 704.908 386.727L721.129 386.834C723.349 386.834 725.032 387.586 726.178 389.09C727.324 390.594 727.896 392.205 727.896 393.924C727.896 395.643 727.324 397.218 726.178 398.65C725.104 400.083 723.456 400.799 721.236 400.799C721.165 400.799 721.129 400.799 721.129 400.799C718.336 400.799 715.543 400.799 712.75 400.799C710.029 400.727 707.271 400.691 704.479 400.691C704.335 407.137 704.264 413.224 704.264 418.953C704.264 444.878 706.018 463.104 709.527 473.631C711.174 478.429 712.893 481.294 714.684 482.225C715.758 482.798 716.653 483.657 717.369 484.803C718.157 485.949 718.551 487.202 718.551 488.562ZM749.596 361.482C749.596 358.833 750.383 356.29 751.959 353.855C753.606 351.349 755.611 349.344 757.975 347.84C760.338 346.264 762.665 345.477 764.957 345.477C768.323 345.477 771.152 346.909 773.443 349.773C775.807 352.566 776.988 355.359 776.988 358.152C776.988 360.802 776.165 363.237 774.518 365.457C772.87 367.677 770.65 369.288 767.857 370.291C764.706 371.867 761.913 372.654 759.479 372.654C756.829 372.654 754.501 371.58 752.496 369.432C750.562 367.212 749.596 364.562 749.596 361.482ZM766.998 474.49C766.783 480.219 765.995 484.803 764.635 488.24C763.274 491.606 760.911 493.289 757.545 493.289C755.683 493.289 754.036 492.609 752.604 491.248C751.171 489.887 750.455 488.204 750.455 486.199C750.455 485.268 750.634 484.337 750.992 483.406C751.637 481.902 752.138 478.93 752.496 474.49C752.926 469.979 753.248 464.679 753.463 458.592C753.678 452.505 753.821 446.238 753.893 439.793C754.036 433.276 754.107 427.225 754.107 421.639C754.107 416.053 754.107 411.613 754.107 408.318C754.107 402.231 754.072 396.395 754 390.809C754 388.517 754.716 386.798 756.148 385.652C757.652 384.507 759.299 383.934 761.09 383.934C762.809 383.934 764.348 384.507 765.709 385.652C767.141 386.727 767.857 388.374 767.857 390.594C767.929 394.389 767.965 398.113 767.965 401.766C768.036 405.418 768.072 408.999 768.072 412.508C768.072 424.181 768.001 434.744 767.857 444.197C767.786 453.65 767.499 463.748 766.998 474.49ZM853.688 380.604C871.52 381.678 886.129 390.486 897.516 407.029C900.595 411.469 902.958 416.411 904.605 421.854C906.253 427.225 907.076 433.204 907.076 439.793C907.076 449.604 904.749 458.413 900.094 466.219C895.439 473.953 889.817 479.933 883.229 484.158C879.003 486.88 874.241 489.064 868.941 490.711C863.642 492.286 858.163 493.074 852.506 493.074C841.979 493.074 832.991 490.783 825.543 486.199C818.167 481.544 812.223 475.779 807.711 468.904C801.624 459.451 798.58 449.318 798.58 438.504C798.58 435.639 798.795 432.739 799.225 429.803C801.23 415.551 807.21 403.878 817.164 394.783C827.19 385.617 838.505 380.783 851.109 380.281C851.969 380.138 852.828 380.245 853.688 380.604ZM893.004 439.041C893.004 430.734 891.07 423.322 887.203 416.805C883.336 410.216 878.323 404.988 872.164 401.121C866.077 397.182 859.667 394.998 852.936 394.568C852.363 394.568 851.79 394.461 851.217 394.246C843.912 394.676 837.324 396.932 831.451 401.014C825.579 405.024 820.924 410.324 817.486 416.912C814.12 423.429 812.438 430.698 812.438 438.719C812.438 444.878 813.619 450.464 815.982 455.477C818.417 460.49 821.533 464.786 825.328 468.367C829.195 471.876 833.206 474.49 837.359 476.209C842.372 478.214 847.529 479.217 852.828 479.217C860.204 479.217 866.9 477.498 872.916 474.061C879.003 470.551 883.622 466.326 886.773 461.385C888.85 458.09 890.39 454.546 891.393 450.75C892.467 446.883 893.004 442.98 893.004 439.041ZM935.758 381.355C937.835 381.355 939.553 382.179 940.914 383.826C946.07 390.057 949.83 399.653 952.193 412.615C961.933 394.998 974.501 385.079 989.898 382.859C992.333 382.501 994.732 382.322 997.096 382.322C1005.69 382.322 1013.28 384.292 1019.87 388.23C1026.46 392.169 1031.86 397.361 1036.09 403.807C1040.32 410.252 1043.18 417.199 1044.68 424.646C1045.69 429.445 1046.19 434.35 1046.19 439.363C1046.19 455.19 1041.14 471.912 1031.04 489.529C1029.75 491.749 1027.78 492.859 1025.13 492.859C1022.91 492.859 1020.91 491.821 1019.12 489.744C1017.4 487.596 1017.33 485.197 1018.9 482.547C1027.78 467.078 1032.22 452.648 1032.22 439.256C1032.22 435.245 1031.83 431.342 1031.04 427.547C1029.9 422.033 1027.78 416.912 1024.7 412.186C1021.7 407.459 1017.83 403.663 1013.1 400.799C1008.45 397.863 1003.08 396.395 996.988 396.395C995.341 396.395 993.658 396.502 991.939 396.717C984.85 397.719 978.798 400.835 973.785 406.062C968.772 411.29 964.726 417.628 961.646 425.076C958.639 432.452 956.454 439.972 955.094 447.635C955.094 448.566 955.094 449.497 955.094 450.428C955.094 460.74 954.557 471.124 953.482 481.58L953.053 485.77C952.838 487.775 952.05 489.279 950.689 490.281C949.329 491.212 947.861 491.678 946.285 491.678C944.566 491.678 942.955 491.141 941.451 490.066C940.019 488.992 939.267 487.381 939.195 485.232C939.052 482.01 938.98 478.859 938.98 475.779C938.98 465.252 939.697 455.548 941.129 446.668C940.842 430.197 939.553 417.843 937.262 409.607C935.042 401.443 933.001 396.215 931.139 393.924C929.42 391.775 928.561 389.878 928.561 388.23C928.561 386.154 929.312 384.507 930.816 383.289C932.32 382 933.967 381.355 935.758 381.355ZM1067.78 413.367C1067.78 406.707 1069.53 401.121 1073.04 396.609C1076.55 392.026 1081.1 388.589 1086.69 386.297C1092.27 384.005 1098.22 382.859 1104.52 382.859C1125 382.859 1142.08 389.376 1155.76 402.41C1157.19 403.771 1157.91 405.382 1157.91 407.244C1157.91 409.035 1157.26 410.646 1155.97 412.078C1154.76 413.51 1153.14 414.262 1151.14 414.334C1149.13 414.334 1147.49 413.725 1146.2 412.508C1142.12 408.569 1136.6 404.988 1129.65 401.766C1122.78 398.471 1115.76 396.824 1108.6 396.824C1093.85 396.824 1085.15 400.835 1082.5 408.855C1081.92 410.574 1081.64 412.221 1081.64 413.797C1081.64 418.094 1083.64 422.068 1087.65 425.721C1092.09 429.803 1099.54 431.844 1110 431.844C1111.71 431.844 1113.54 431.772 1115.47 431.629C1117.41 431.486 1119.34 431.414 1121.28 431.414C1130.51 431.414 1138 432.811 1143.73 435.604C1149.46 438.325 1153.82 442.693 1156.83 448.709C1158.77 452.719 1159.73 456.622 1159.73 460.418C1159.73 462.137 1159.55 463.855 1159.2 465.574C1156.83 476.03 1150.35 483.657 1139.75 488.455C1133.09 491.535 1126.04 493.074 1118.59 493.074C1117.09 493.074 1115.55 493.003 1113.97 492.859C1097 491.284 1082.89 485.555 1071.65 475.672C1070.07 474.311 1069.28 472.557 1069.28 470.408C1069.28 468.475 1069.96 466.863 1071.32 465.574C1072.76 464.214 1074.4 463.533 1076.27 463.533C1078.06 463.533 1079.6 464.07 1080.88 465.145C1085.9 469.513 1091.48 472.915 1097.64 475.35C1103.8 477.785 1110.86 479.002 1118.8 479.002C1128.76 479.002 1136.35 476.137 1141.58 470.408C1144.44 467.257 1145.88 464.035 1145.88 460.74C1145.88 458.807 1145.37 456.837 1144.37 454.832C1141.29 448.53 1134.77 445.379 1124.82 445.379C1122.67 445.379 1120.45 445.451 1118.16 445.594C1115.87 445.665 1113.79 445.701 1111.93 445.701C1103.41 445.701 1097.11 445.164 1093.02 444.09C1087.37 442.586 1082.35 439.829 1077.98 435.818C1073.62 431.808 1070.61 427.01 1068.96 421.424C1068.17 418.774 1067.78 416.089 1067.78 413.367ZM1204.96 482.762C1204.96 485.841 1203.85 488.527 1201.63 490.818C1199.48 493.11 1196.69 494.256 1193.25 494.256C1189.31 494.256 1186.34 492.967 1184.33 490.389C1182.33 487.811 1181.32 484.695 1181.32 481.043C1181.32 479.324 1181.54 477.57 1181.97 475.779C1182.26 474.49 1182.9 472.879 1183.9 470.945C1184.9 468.94 1186.12 467.186 1187.55 465.682C1188.99 464.178 1190.49 463.426 1192.07 463.426C1194.29 463.426 1196.36 464.536 1198.3 466.756C1200.3 468.904 1201.91 471.482 1203.13 474.49C1204.35 477.498 1204.96 480.255 1204.96 482.762ZM1233.53 400.477C1231.67 400.477 1230.02 399.796 1228.59 398.436C1227.23 397.003 1226.55 395.356 1226.55 393.494C1226.55 391.632 1227.23 390.021 1228.59 388.66C1230.02 387.228 1231.67 386.512 1233.53 386.512H1252.54C1252.62 377.13 1252.72 369.969 1252.87 365.027C1253.01 359.083 1254.62 353.891 1257.7 349.451C1260.78 345.011 1264.83 341.574 1269.84 339.139C1274.92 336.704 1280.47 335.486 1286.49 335.486C1289.64 335.486 1292.79 335.844 1295.94 336.561C1306.76 338.924 1315.74 345.62 1322.91 356.648C1323.69 357.866 1324.09 359.119 1324.09 360.408C1324.09 362.342 1323.3 363.989 1321.72 365.35C1320.22 366.71 1318.5 367.391 1316.57 367.391C1314.28 367.391 1312.45 366.352 1311.09 364.275C1306.01 356.469 1299.95 351.779 1292.94 350.203C1290.86 349.773 1288.78 349.559 1286.71 349.559C1281.48 349.559 1276.89 350.955 1272.96 353.748C1269.02 356.541 1266.98 360.265 1266.83 364.92C1266.76 369.933 1266.65 377.13 1266.51 386.512H1284.66C1286.53 386.512 1288.14 387.228 1289.5 388.66C1290.93 390.021 1291.65 391.632 1291.65 393.494C1291.65 395.356 1290.93 397.003 1289.5 398.436C1288.14 399.796 1286.53 400.477 1284.66 400.477H1266.4C1266.33 404.415 1266.29 411.684 1266.29 422.283C1266.29 432.811 1266.22 446.632 1266.08 463.748L1265.97 485.125C1265.97 487.345 1265.26 489.028 1263.82 490.174C1262.39 491.248 1260.78 491.785 1258.99 491.785C1257.27 491.785 1255.66 491.248 1254.16 490.174C1252.72 489.028 1252.01 487.309 1252.01 485.018L1252.12 463.748C1252.26 446.704 1252.33 432.918 1252.33 422.391C1252.33 411.863 1252.37 404.559 1252.44 400.477H1233.53ZM1352.66 492.859C1350.66 492.859 1348.94 491.893 1347.51 489.959C1346.07 487.954 1345.36 486.163 1345.36 484.588C1345.36 483.227 1345.57 481.831 1346 480.398C1346.5 478.966 1346.79 477.605 1346.86 476.316C1347.08 472.378 1347.47 467.078 1348.04 460.418C1348.62 453.686 1348.9 447.169 1348.9 440.867C1348.9 436.284 1348.83 431.307 1348.69 425.936C1348.26 410.109 1347.61 400.477 1346.75 397.039C1346.4 395.535 1346.22 394.174 1346.22 392.957C1346.22 390.88 1346.79 389.197 1347.94 387.908C1349.15 386.548 1350.84 385.867 1352.98 385.867C1354.63 385.867 1356.06 386.404 1357.28 387.479C1358.5 388.553 1359.29 389.77 1359.64 391.131C1361.22 397.075 1362.15 406.206 1362.44 418.523C1372.89 397.97 1387.04 386.583 1404.87 384.363C1405.16 384.363 1405.44 384.363 1405.73 384.363C1407.88 384.363 1409.52 385.151 1410.67 386.727C1411.89 388.23 1412.5 389.878 1412.5 391.668C1412.5 393.243 1412.03 394.676 1411.1 395.965C1410.17 397.254 1408.66 398.006 1406.59 398.221C1388.4 400.512 1375.01 416.805 1366.41 447.098C1364.34 454.474 1362.76 462.065 1361.69 469.871C1361.47 473.094 1361.26 475.636 1361.04 477.498C1360.9 479.36 1360.83 481.115 1360.83 482.762C1360.83 483.693 1360.9 484.445 1361.04 485.018C1361.18 485.59 1361.26 486.092 1361.26 486.521C1361.26 488.097 1360.18 489.565 1358.03 490.926C1355.96 492.215 1354.17 492.859 1352.66 492.859ZM1423.13 455.584C1425.21 463.032 1429.22 468.868 1435.16 473.094C1441.18 477.319 1448.73 479.432 1457.83 479.432C1470 479.432 1484.15 475.457 1500.26 467.508C1501.26 467.007 1502.3 466.756 1503.38 466.756C1505.24 466.756 1506.85 467.4 1508.21 468.689C1509.64 469.979 1510.36 471.59 1510.36 473.523C1510.36 476.603 1509.07 478.787 1506.49 480.076C1498.33 484.087 1490.02 487.309 1481.57 489.744C1473.12 492.179 1464.95 493.396 1457.08 493.396C1448.98 493.396 1441.43 491.893 1434.41 488.885C1427.46 485.877 1421.52 480.864 1416.58 473.846C1413.79 469.907 1411.64 465.717 1410.13 461.277C1408.63 456.837 1407.88 451.86 1407.88 446.346C1407.88 443.911 1408.02 441.368 1408.31 438.719C1409.95 425.04 1415.65 413.331 1425.39 403.592C1437.99 390.988 1454.57 384.686 1475.12 384.686C1483 384.686 1489.91 386.225 1495.86 389.305C1501.8 392.312 1506.02 396.609 1508.53 402.195C1509.89 405.275 1510.57 408.533 1510.57 411.971C1510.57 417.843 1509.03 423.035 1505.95 427.547C1502.95 431.987 1498.65 436.105 1493.06 439.9C1477.38 450.499 1454.64 455.799 1424.85 455.799C1424.42 455.799 1423.85 455.727 1423.13 455.584ZM1421.95 442.479C1422.95 442.049 1423.92 441.834 1424.85 441.834C1451.85 441.834 1472.01 437.322 1485.33 428.299C1489.05 425.792 1491.88 423.25 1493.81 420.672C1495.75 418.022 1496.71 414.979 1496.71 411.541C1496.71 409.536 1496.25 407.924 1495.32 406.707C1494.46 405.49 1493.31 404.344 1491.88 403.27C1487.87 400.19 1482.32 398.65 1475.23 398.65C1465.71 398.65 1457.04 400.441 1449.23 404.021C1441.43 407.531 1435.09 412.579 1430.22 419.168C1425.42 425.685 1422.67 433.455 1421.95 442.479ZM1529.69 455.584C1531.77 463.032 1535.78 468.868 1541.72 473.094C1547.74 477.319 1555.3 479.432 1564.39 479.432C1576.57 479.432 1590.71 475.457 1606.82 467.508C1607.82 467.007 1608.86 466.756 1609.94 466.756C1611.8 466.756 1613.41 467.4 1614.77 468.689C1616.2 469.979 1616.92 471.59 1616.92 473.523C1616.92 476.603 1615.63 478.787 1613.05 480.076C1604.89 484.087 1596.58 487.309 1588.13 489.744C1579.68 492.179 1571.52 493.396 1563.64 493.396C1555.55 493.396 1547.99 491.893 1540.97 488.885C1534.03 485.877 1528.08 480.864 1523.14 473.846C1520.35 469.907 1518.2 465.717 1516.7 461.277C1515.19 456.837 1514.44 451.86 1514.44 446.346C1514.44 443.911 1514.58 441.368 1514.87 438.719C1516.52 425.04 1522.21 413.331 1531.95 403.592C1544.55 390.988 1561.13 384.686 1581.69 384.686C1589.56 384.686 1596.47 386.225 1602.42 389.305C1608.36 392.312 1612.59 396.609 1615.09 402.195C1616.45 405.275 1617.13 408.533 1617.13 411.971C1617.13 417.843 1615.6 423.035 1612.52 427.547C1609.51 431.987 1605.21 436.105 1599.62 439.9C1583.94 450.499 1561.2 455.799 1531.41 455.799C1530.98 455.799 1530.41 455.727 1529.69 455.584ZM1528.51 442.479C1529.51 442.049 1530.48 441.834 1531.41 441.834C1558.41 441.834 1578.57 437.322 1591.89 428.299C1595.61 425.792 1598.44 423.25 1600.38 420.672C1602.31 418.022 1603.28 414.979 1603.28 411.541C1603.28 409.536 1602.81 407.924 1601.88 406.707C1601.02 405.49 1599.88 404.344 1598.44 403.27C1594.43 400.19 1588.88 398.65 1581.79 398.65C1572.27 398.65 1563.6 400.441 1555.8 404.021C1547.99 407.531 1541.65 412.579 1536.78 419.168C1531.99 425.685 1529.23 433.455 1528.51 442.479Z" fill="white"/>
</svg>

